<mxfile host="app.diagrams.net" modified="2022-04-06T07:20:00.395Z" agent="5.0 (Windows NT 10.0; Win64; x64) AppleWebKit/537.36 (KHTML, like Gecko) Chrome/100.0.4896.75 Safari/537.36" etag="PP9r5Q4ZnmAAiheDewRL" version="17.4.0" type="github">
  <diagram id="x-Sexi6F8sJB0yjPF3IZ" name="Page-1">
    <mxGraphModel dx="3460" dy="1853" grid="1" gridSize="10" guides="1" tooltips="1" connect="1" arrows="1" fold="1" page="1" pageScale="1" pageWidth="900" pageHeight="1600" math="0" shadow="0">
      <root>
        <mxCell id="0" />
        <mxCell id="1" parent="0" />
        <mxCell id="UxnLPPTvP_sObnjLlX6k-19" value="" style="rounded=0;whiteSpace=wrap;html=1;fillColor=#d5e8d4;strokeColor=#82b366;align=center;" parent="1" vertex="1">
          <mxGeometry x="1725" y="744.5" width="890" height="645.5" as="geometry" />
        </mxCell>
        <mxCell id="-DWdb9lvFDNPIEKAmtFA-177" value="" style="rounded=0;whiteSpace=wrap;html=1;shadow=0;comic=0;fontSize=13;strokeColor=#000000;strokeWidth=1;fillColor=none;align=center;" parent="1" vertex="1">
          <mxGeometry x="1795" y="1200" width="745" height="180" as="geometry" />
        </mxCell>
        <mxCell id="MnBA1TXpeBqanZ1rdVY3-17" value="" style="rounded=0;whiteSpace=wrap;html=1;fontSize=14;strokeColor=#b85450;fillColor=#f8cecc;" parent="1" vertex="1">
          <mxGeometry x="3230" y="735.37" width="330" height="651.75" as="geometry" />
        </mxCell>
        <mxCell id="9v5I5Lgi_oh3hGJhgwNZ-31" value="" style="rounded=1;whiteSpace=wrap;html=1;strokeWidth=2;fillWeight=4;hachureGap=8;hachureAngle=45;fillColor=#fff2cc;sketch=1;strokeColor=#d6b656;" parent="1" vertex="1">
          <mxGeometry x="345" y="690" width="290" height="540" as="geometry" />
        </mxCell>
        <mxCell id="UxnLPPTvP_sObnjLlX6k-30" value="" style="edgeStyle=orthogonalEdgeStyle;rounded=0;orthogonalLoop=1;jettySize=auto;html=1;fontSize=13;" parent="1" source="UxnLPPTvP_sObnjLlX6k-24" target="UxnLPPTvP_sObnjLlX6k-29" edge="1">
          <mxGeometry relative="1" as="geometry" />
        </mxCell>
        <mxCell id="UxnLPPTvP_sObnjLlX6k-24" value="Producer" style="rounded=0;whiteSpace=wrap;html=1;shadow=0;comic=0;" parent="1" vertex="1">
          <mxGeometry x="435" y="780" width="80" height="50" as="geometry" />
        </mxCell>
        <mxCell id="UxnLPPTvP_sObnjLlX6k-27" value="&lt;span&gt;1.有两个主要的线程：&lt;/span&gt;&lt;span&gt;main和sender&lt;br&gt;2.两者中间有一个缓冲队列：recordAcumulator&lt;br&gt;&lt;br&gt;&lt;/span&gt;" style="whiteSpace=wrap;html=1;rounded=0;shadow=0;fontSize=13;strokeWidth=1;fillColor=none;comic=0;" parent="1" vertex="1">
          <mxGeometry x="140" y="724.5" width="145" height="85" as="geometry" />
        </mxCell>
        <mxCell id="UxnLPPTvP_sObnjLlX6k-32" value="" style="edgeStyle=orthogonalEdgeStyle;rounded=0;orthogonalLoop=1;jettySize=auto;html=1;fontSize=13;" parent="1" source="UxnLPPTvP_sObnjLlX6k-29" target="UxnLPPTvP_sObnjLlX6k-31" edge="1">
          <mxGeometry relative="1" as="geometry" />
        </mxCell>
        <mxCell id="UxnLPPTvP_sObnjLlX6k-29" value="Interceptors&lt;br&gt;拦截器" style="rounded=0;whiteSpace=wrap;html=1;shadow=0;comic=0;" parent="1" vertex="1">
          <mxGeometry x="435" y="910" width="80" height="50" as="geometry" />
        </mxCell>
        <mxCell id="UxnLPPTvP_sObnjLlX6k-34" value="" style="edgeStyle=orthogonalEdgeStyle;rounded=0;orthogonalLoop=1;jettySize=auto;html=1;fontSize=13;" parent="1" source="UxnLPPTvP_sObnjLlX6k-31" target="UxnLPPTvP_sObnjLlX6k-33" edge="1">
          <mxGeometry relative="1" as="geometry" />
        </mxCell>
        <mxCell id="UxnLPPTvP_sObnjLlX6k-31" value="Serializer&lt;br&gt;序列化器" style="rounded=0;whiteSpace=wrap;html=1;shadow=0;comic=0;fillColor=default;" parent="1" vertex="1">
          <mxGeometry x="435" y="1040" width="80" height="50" as="geometry" />
        </mxCell>
        <mxCell id="UxnLPPTvP_sObnjLlX6k-33" value="Partitioner&lt;br&gt;分区器" style="rounded=0;whiteSpace=wrap;html=1;shadow=0;comic=0;" parent="1" vertex="1">
          <mxGeometry x="435" y="1170" width="80" height="40" as="geometry" />
        </mxCell>
        <mxCell id="UxnLPPTvP_sObnjLlX6k-35" value="需要拉去broker中的meta信息&lt;br&gt;才知道要发往那个broker的哪个分区" style="text;html=1;align=center;verticalAlign=middle;resizable=0;points=[];autosize=1;strokeColor=none;fontSize=13;" parent="1" vertex="1">
          <mxGeometry x="385" y="1110" width="220" height="40" as="geometry" />
        </mxCell>
        <mxCell id="UxnLPPTvP_sObnjLlX6k-36" value="调用send方法" style="text;html=1;align=center;verticalAlign=middle;resizable=0;points=[];autosize=1;strokeColor=none;fontSize=13;" parent="1" vertex="1">
          <mxGeometry x="445" y="860" width="100" height="20" as="geometry" />
        </mxCell>
        <mxCell id="UxnLPPTvP_sObnjLlX6k-38" value="生产者端" style="rounded=1;whiteSpace=wrap;html=1;strokeWidth=2;fillWeight=4;hachureGap=8;hachureAngle=45;fillColor=#fff2cc;sketch=1;shadow=0;comic=0;fontSize=24;strokeColor=#d6b656;fontStyle=1" parent="1" vertex="1">
          <mxGeometry x="355" y="620" width="270" height="70" as="geometry" />
        </mxCell>
        <mxCell id="UxnLPPTvP_sObnjLlX6k-39" value="&lt;b&gt;&lt;font color=&quot;#99004d&quot;&gt;生产者发送数据的分区原则&lt;/font&gt;&lt;font color=&quot;#4b7d74&quot;&gt;：&lt;/font&gt;&lt;/b&gt;&lt;br&gt;1. 如果有指定分区，则发送到对应的分区中&lt;br&gt;2.&amp;nbsp;如果没有指定分区，但有key，则hash(key)%num(partition)&lt;br&gt;3.&amp;nbsp;如果没有指定分区和key，则采用粘性分区。随机选择一个分区，并之后一直使用该分区，直到该分区被占满。下次将会随机选择另外一个分区" style="whiteSpace=wrap;html=1;rounded=0;shadow=0;comic=0;fontSize=13;strokeColor=#000000;strokeWidth=1;fillColor=none;align=left;dashed=1;" parent="1" vertex="1">
          <mxGeometry x="340" y="1250" width="290" height="160" as="geometry" />
        </mxCell>
        <mxCell id="UxnLPPTvP_sObnjLlX6k-44" value="" style="rounded=1;whiteSpace=wrap;html=1;strokeWidth=2;fillWeight=4;hachureGap=8;hachureAngle=45;fillColor=#fff2cc;sketch=1;shadow=0;comic=0;fontSize=13;align=left;strokeColor=#d6b656;" parent="1" vertex="1">
          <mxGeometry x="755" y="700" width="300" height="520" as="geometry" />
        </mxCell>
        <mxCell id="UxnLPPTvP_sObnjLlX6k-45" value="ARecordAcumulator 【在内存中】" style="text;html=1;align=center;verticalAlign=middle;resizable=0;points=[];autosize=1;strokeColor=none;fontSize=13;" parent="1" vertex="1">
          <mxGeometry x="795" y="750" width="210" height="20" as="geometry" />
        </mxCell>
        <mxCell id="UxnLPPTvP_sObnjLlX6k-46" value="发送缓存队列？" style="rounded=0;whiteSpace=wrap;html=1;shadow=0;comic=0;fontSize=13;strokeColor=#000000;strokeWidth=1;fillColor=none;align=center;" parent="1" vertex="1">
          <mxGeometry x="790" y="820" width="240" height="50" as="geometry" />
        </mxCell>
        <mxCell id="UxnLPPTvP_sObnjLlX6k-47" value="&lt;div style=&quot;&quot;&gt;&lt;span&gt;发送缓存队列？&lt;/span&gt;&lt;/div&gt;" style="rounded=0;whiteSpace=wrap;html=1;shadow=0;comic=0;fontSize=13;strokeColor=#000000;strokeWidth=1;fillColor=none;align=center;" parent="1" vertex="1">
          <mxGeometry x="795" y="900" width="240" height="50" as="geometry" />
        </mxCell>
        <mxCell id="UxnLPPTvP_sObnjLlX6k-48" value="" style="rounded=0;whiteSpace=wrap;html=1;shadow=0;comic=0;fontSize=13;strokeColor=#000000;strokeWidth=1;fillColor=none;align=left;" parent="1" vertex="1">
          <mxGeometry x="795" y="965" width="240" height="50" as="geometry" />
        </mxCell>
        <mxCell id="UxnLPPTvP_sObnjLlX6k-49" value="" style="rounded=0;whiteSpace=wrap;html=1;shadow=0;comic=0;fontSize=13;strokeColor=#000000;strokeWidth=1;fillColor=none;align=left;" parent="1" vertex="1">
          <mxGeometry x="985" y="975" width="30" height="30" as="geometry" />
        </mxCell>
        <mxCell id="UxnLPPTvP_sObnjLlX6k-50" value="" style="rounded=0;whiteSpace=wrap;html=1;shadow=0;comic=0;fontSize=13;strokeColor=#000000;strokeWidth=1;fillColor=none;align=left;" parent="1" vertex="1">
          <mxGeometry x="935" y="975" width="30" height="30" as="geometry" />
        </mxCell>
        <mxCell id="UxnLPPTvP_sObnjLlX6k-51" value="" style="rounded=0;whiteSpace=wrap;html=1;shadow=0;comic=0;fontSize=13;strokeColor=#000000;strokeWidth=1;fillColor=none;align=left;" parent="1" vertex="1">
          <mxGeometry x="885" y="975" width="30" height="30" as="geometry" />
        </mxCell>
        <mxCell id="UxnLPPTvP_sObnjLlX6k-52" value="每个batch的最小为16k" style="whiteSpace=wrap;html=1;shape=partialRectangle;top=0;left=0;bottom=1;right=0;points=[[0,1],[1,1]];fillColor=#e1d5e7;align=center;verticalAlign=bottom;routingCenterY=0.5;snapToPoint=1;recursiveResize=0;autosize=1;treeFolding=1;treeMoving=1;newEdgeStyle={&quot;edgeStyle&quot;:&quot;entityRelationEdgeStyle&quot;,&quot;startArrow&quot;:&quot;none&quot;,&quot;endArrow&quot;:&quot;none&quot;,&quot;segment&quot;:10,&quot;curved&quot;:1};rounded=0;shadow=0;comic=0;fontSize=13;strokeColor=#9673a6;strokeWidth=1;" parent="1" vertex="1">
          <mxGeometry x="665" y="1050" width="160" height="20" as="geometry" />
        </mxCell>
        <mxCell id="UxnLPPTvP_sObnjLlX6k-53" value="" style="edgeStyle=entityRelationEdgeStyle;startArrow=none;endArrow=none;segment=10;curved=1;fontSize=13;entryX=1;entryY=1;entryDx=0;entryDy=0;" parent="1" target="UxnLPPTvP_sObnjLlX6k-52" edge="1">
          <mxGeometry relative="1" as="geometry">
            <mxPoint x="895" y="995" as="sourcePoint" />
            <mxPoint x="825" y="1045" as="targetPoint" />
          </mxGeometry>
        </mxCell>
        <mxCell id="UxnLPPTvP_sObnjLlX6k-54" value="内存池" style="rounded=0;whiteSpace=wrap;html=1;shadow=0;comic=0;fontSize=13;strokeColor=#6c8ebf;strokeWidth=1;fillColor=#dae8fc;align=center;" parent="1" vertex="1">
          <mxGeometry x="795" y="1090" width="230" height="50" as="geometry" />
        </mxCell>
        <mxCell id="UxnLPPTvP_sObnjLlX6k-59" value="缓冲队列的总大小&amp;nbsp; 默认为32m" style="whiteSpace=wrap;html=1;shape=partialRectangle;top=0;left=0;bottom=1;right=0;points=[[0,1],[1,1]];fillColor=#e1d5e7;align=center;verticalAlign=bottom;routingCenterY=0.5;snapToPoint=1;recursiveResize=0;autosize=1;treeFolding=1;treeMoving=1;newEdgeStyle={&quot;edgeStyle&quot;:&quot;entityRelationEdgeStyle&quot;,&quot;startArrow&quot;:&quot;none&quot;,&quot;endArrow&quot;:&quot;none&quot;,&quot;segment&quot;:10,&quot;curved&quot;:1};rounded=0;shadow=0;comic=0;fontSize=13;strokeColor=#9673a6;strokeWidth=1;" parent="1" vertex="1">
          <mxGeometry x="675" y="777" width="215" height="20" as="geometry" />
        </mxCell>
        <mxCell id="UxnLPPTvP_sObnjLlX6k-60" value="" style="edgeStyle=entityRelationEdgeStyle;startArrow=none;endArrow=none;segment=10;curved=1;fontSize=13;" parent="1" target="UxnLPPTvP_sObnjLlX6k-59" edge="1">
          <mxGeometry relative="1" as="geometry">
            <mxPoint x="895" y="760" as="sourcePoint" />
          </mxGeometry>
        </mxCell>
        <mxCell id="UxnLPPTvP_sObnjLlX6k-65" value="main线程" style="text;html=1;align=center;verticalAlign=middle;resizable=0;points=[];autosize=1;strokeColor=none;fontSize=13;" parent="1" vertex="1">
          <mxGeometry x="365" y="704.5" width="70" height="20" as="geometry" />
        </mxCell>
        <mxCell id="UxnLPPTvP_sObnjLlX6k-66" value="" style="edgeStyle=elbowEdgeStyle;elbow=vertical;endArrow=classic;html=1;fontSize=13;exitX=1;exitY=0.5;exitDx=0;exitDy=0;startArrow=none;entryX=0.5;entryY=0;entryDx=0;entryDy=0;" parent="1" source="UxnLPPTvP_sObnjLlX6k-38" target="UxnLPPTvP_sObnjLlX6k-68" edge="1">
          <mxGeometry width="50" height="50" relative="1" as="geometry">
            <mxPoint x="1120" y="665" as="sourcePoint" />
            <mxPoint x="1525" y="660" as="targetPoint" />
            <Array as="points">
              <mxPoint x="925" y="640" />
            </Array>
          </mxGeometry>
        </mxCell>
        <mxCell id="UxnLPPTvP_sObnjLlX6k-68" value="" style="rounded=1;whiteSpace=wrap;html=1;strokeWidth=2;fillWeight=4;hachureGap=8;hachureAngle=45;fillColor=#fff2cc;sketch=1;shadow=0;comic=0;fontSize=13;align=left;strokeColor=#d6b656;" parent="1" vertex="1">
          <mxGeometry x="1245" y="696" width="370" height="550" as="geometry" />
        </mxCell>
        <mxCell id="UxnLPPTvP_sObnjLlX6k-71" value="&lt;b&gt;&lt;font color=&quot;#99004d&quot;&gt;保证消费者有序消费的前提：&lt;/font&gt;&lt;/b&gt;&lt;br&gt;每个broker&lt;b&gt;最多缓存5个请求&lt;/b&gt;（能够异步发送数据的请求）。为了保证单分区内的有序性，由参数InFlightRequests进行控制是否保障消费消息有序&lt;br&gt;&lt;br&gt;如果未开启幂等性，InFlightRequests=1&lt;br&gt;如果开启幂等性，InFlightRequests=5" style="rounded=0;whiteSpace=wrap;html=1;shadow=0;comic=0;fontSize=13;strokeColor=#000000;strokeWidth=1;fillColor=none;align=left;dashed=1;" parent="1" vertex="1">
          <mxGeometry x="1037.5" y="1245" width="237.5" height="170" as="geometry" />
        </mxCell>
        <mxCell id="UxnLPPTvP_sObnjLlX6k-80" value="sender线程抓取数据" style="text;html=1;align=center;verticalAlign=middle;resizable=0;points=[];autosize=1;strokeColor=none;fontSize=13;" parent="1" vertex="1">
          <mxGeometry x="1075" y="890" width="130" height="20" as="geometry" />
        </mxCell>
        <mxCell id="UxnLPPTvP_sObnjLlX6k-82" value="抓取数据的条件：&lt;br&gt;1. 当&lt;b&gt;batchsize&lt;/b&gt;达到16k&lt;br&gt;2.&amp;nbsp;如果生产者迟迟不发送数据，batchsize一直没有达到16k，则由&lt;b&gt;ling.ms&lt;/b&gt;时间控制，默认是0ms" style="whiteSpace=wrap;html=1;rounded=0;shadow=0;comic=0;fontSize=13;strokeColor=#9673a6;strokeWidth=1;fillColor=#e1d5e7;align=left;dashed=1;" parent="1" vertex="1">
          <mxGeometry x="1083" y="940" width="150" height="100" as="geometry" />
        </mxCell>
        <mxCell id="UxnLPPTvP_sObnjLlX6k-88" value="" style="edgeStyle=elbowEdgeStyle;rounded=0;orthogonalLoop=1;jettySize=auto;elbow=vertical;html=1;fontSize=13;strokeWidth=1;" parent="1" source="UxnLPPTvP_sObnjLlX6k-83" target="UxnLPPTvP_sObnjLlX6k-87" edge="1">
          <mxGeometry relative="1" as="geometry" />
        </mxCell>
        <mxCell id="UxnLPPTvP_sObnjLlX6k-83" value="selector?" style="rounded=0;whiteSpace=wrap;html=1;shadow=0;comic=0;fontSize=13;strokeColor=#6c8ebf;strokeWidth=1;fillColor=#dae8fc;align=center;" parent="1" vertex="1">
          <mxGeometry x="1285" y="1150" width="230" height="50" as="geometry" />
        </mxCell>
        <mxCell id="UxnLPPTvP_sObnjLlX6k-84" value="生产环境中，&lt;b&gt;&lt;font color=&quot;#99004d&quot;&gt;要提高生产者的吞吐量&lt;/font&gt;&lt;/b&gt;，方法有：&lt;br&gt;1.&amp;nbsp;batchsize：默认是16k，可提高到32k&amp;nbsp; 【一次卡车装多点】&lt;br&gt;2.&amp;nbsp;缓冲区大小：默认是32m，可提高到64m 【仓库弄大点】&lt;br&gt;3.&amp;nbsp;压缩方式：可选择snapyy&amp;nbsp; 【将货物体积弄小一点】&lt;br&gt;4.&amp;nbsp;ling.ms：默认是0ms，可提高到5-100ms 【等待时间变长多装点货物，但太长会导致信息延迟严重】" style="whiteSpace=wrap;html=1;rounded=0;shadow=0;comic=0;fontSize=13;strokeColor=#000000;strokeWidth=1;fillColor=none;align=left;dashed=1;" parent="1" vertex="1">
          <mxGeometry x="651" y="1250" width="364" height="160" as="geometry" />
        </mxCell>
        <mxCell id="UxnLPPTvP_sObnjLlX6k-94" value="是" style="edgeStyle=elbowEdgeStyle;rounded=0;orthogonalLoop=1;jettySize=auto;elbow=vertical;html=1;fontSize=13;strokeWidth=1;entryX=0.5;entryY=1;entryDx=0;entryDy=0;" parent="1" source="UxnLPPTvP_sObnjLlX6k-87" target="9v5I5Lgi_oh3hGJhgwNZ-5" edge="1">
          <mxGeometry relative="1" as="geometry">
            <Array as="points">
              <mxPoint x="1400" y="1040" />
            </Array>
            <mxPoint x="1400" y="1014.9999999999998" as="targetPoint" />
          </mxGeometry>
        </mxCell>
        <mxCell id="UxnLPPTvP_sObnjLlX6k-96" style="edgeStyle=elbowEdgeStyle;rounded=0;orthogonalLoop=1;jettySize=auto;elbow=vertical;html=1;exitX=1;exitY=0.5;exitDx=0;exitDy=0;fontSize=13;strokeWidth=1;entryX=1;entryY=0.5;entryDx=0;entryDy=0;" parent="1" source="UxnLPPTvP_sObnjLlX6k-87" target="9v5I5Lgi_oh3hGJhgwNZ-5" edge="1">
          <mxGeometry relative="1" as="geometry">
            <mxPoint x="1520" y="977.4999999999998" as="targetPoint" />
            <Array as="points">
              <mxPoint x="1585" y="1095" />
            </Array>
          </mxGeometry>
        </mxCell>
        <mxCell id="UxnLPPTvP_sObnjLlX6k-97" value="否" style="edgeLabel;html=1;align=center;verticalAlign=middle;resizable=0;points=[];fontSize=13;" parent="UxnLPPTvP_sObnjLlX6k-96" vertex="1" connectable="0">
          <mxGeometry x="-0.6113" y="-4" relative="1" as="geometry">
            <mxPoint as="offset" />
          </mxGeometry>
        </mxCell>
        <mxCell id="UxnLPPTvP_sObnjLlX6k-87" value="成功应答？" style="rhombus;whiteSpace=wrap;html=1;rounded=0;shadow=0;fontSize=13;strokeColor=#6c8ebf;strokeWidth=1;fillColor=#dae8fc;comic=0;" parent="1" vertex="1">
          <mxGeometry x="1360" y="1060" width="80" height="70" as="geometry" />
        </mxCell>
        <mxCell id="UxnLPPTvP_sObnjLlX6k-100" value="retrie重试次数，默认为Integer的最大值，通常设置为3-5次" style="rounded=0;whiteSpace=wrap;html=1;shadow=0;comic=0;fontSize=13;strokeColor=#9673a6;strokeWidth=1;fillColor=#e1d5e7;align=center;dashed=1;" parent="1" vertex="1">
          <mxGeometry x="1445" y="1025" width="130" height="65" as="geometry" />
        </mxCell>
        <mxCell id="UxnLPPTvP_sObnjLlX6k-102" value="broker端" style="rounded=1;whiteSpace=wrap;html=1;strokeWidth=2;fillWeight=4;hachureGap=8;hachureAngle=45;fillColor=#d5e8d4;sketch=1;shadow=0;dashed=1;comic=0;fontSize=23;align=center;strokeColor=#82b366;fontStyle=1" parent="1" vertex="1">
          <mxGeometry x="1725" y="684.5" width="880" height="60" as="geometry" />
        </mxCell>
        <mxCell id="UxnLPPTvP_sObnjLlX6k-110" value="" style="rounded=0;whiteSpace=wrap;html=1;shadow=0;comic=0;fontSize=13;strokeColor=#000000;strokeWidth=1;fillColor=none;align=center;" parent="1" vertex="1">
          <mxGeometry x="1795" y="790" width="745" height="180" as="geometry" />
        </mxCell>
        <mxCell id="UxnLPPTvP_sObnjLlX6k-112" value="" style="edgeStyle=elbowEdgeStyle;elbow=horizontal;endArrow=classic;html=1;fontSize=13;strokeWidth=5;exitX=1;exitY=0.5;exitDx=0;exitDy=0;entryX=0;entryY=0.5;entryDx=0;entryDy=0;" parent="1" source="UxnLPPTvP_sObnjLlX6k-33" target="UxnLPPTvP_sObnjLlX6k-47" edge="1">
          <mxGeometry width="50" height="50" relative="1" as="geometry">
            <mxPoint x="685" y="1170" as="sourcePoint" />
            <mxPoint x="735" y="1120" as="targetPoint" />
            <Array as="points">
              <mxPoint x="645" y="1060" />
            </Array>
          </mxGeometry>
        </mxCell>
        <mxCell id="TE2P3VH-hTuM74N47Mns-30" style="edgeStyle=orthogonalEdgeStyle;rounded=0;orthogonalLoop=1;jettySize=auto;html=1;fontSize=12;fontColor=#000000;strokeWidth=2;exitX=1;exitY=0.5;exitDx=0;exitDy=0;" parent="1" source="UxnLPPTvP_sObnjLlX6k-113" target="TE2P3VH-hTuM74N47Mns-21" edge="1">
          <mxGeometry relative="1" as="geometry" />
        </mxCell>
        <mxCell id="UxnLPPTvP_sObnjLlX6k-113" value="" style="rounded=0;whiteSpace=wrap;html=1;shadow=0;comic=0;fontSize=13;strokeColor=#000000;strokeWidth=1;fillColor=none;align=center;" parent="1" vertex="1">
          <mxGeometry x="1795" y="1000" width="745" height="180" as="geometry" />
        </mxCell>
        <mxCell id="UxnLPPTvP_sObnjLlX6k-124" value="" style="edgeStyle=elbowEdgeStyle;rounded=0;orthogonalLoop=1;jettySize=auto;elbow=vertical;html=1;fontSize=13;strokeWidth=1;exitX=0.5;exitY=0;exitDx=0;exitDy=0;entryX=0.5;entryY=1;entryDx=0;entryDy=0;" parent="1" target="-DWdb9lvFDNPIEKAmtFA-97" edge="1">
          <mxGeometry relative="1" as="geometry">
            <mxPoint x="1897.5" y="1019.9999999999998" as="sourcePoint" />
            <mxPoint x="1897.5" y="957.25" as="targetPoint" />
          </mxGeometry>
        </mxCell>
        <mxCell id="UxnLPPTvP_sObnjLlX6k-125" value="主动同步leader的数据" style="edgeLabel;html=1;align=center;verticalAlign=middle;resizable=0;points=[];fontSize=13;" parent="UxnLPPTvP_sObnjLlX6k-124" vertex="1" connectable="0">
          <mxGeometry x="0.1819" y="4" relative="1" as="geometry">
            <mxPoint as="offset" />
          </mxGeometry>
        </mxCell>
        <mxCell id="UxnLPPTvP_sObnjLlX6k-126" value="" style="edgeStyle=elbowEdgeStyle;elbow=horizontal;endArrow=classic;html=1;fontSize=13;strokeWidth=2;entryX=0;entryY=0.5;entryDx=0;entryDy=0;exitX=1;exitY=0.25;exitDx=0;exitDy=0;" parent="1" source="UxnLPPTvP_sObnjLlX6k-83" target="-DWdb9lvFDNPIEKAmtFA-97" edge="1">
          <mxGeometry width="50" height="50" relative="1" as="geometry">
            <mxPoint x="1515" y="1180" as="sourcePoint" />
            <mxPoint x="1801" y="914.5" as="targetPoint" />
            <Array as="points">
              <mxPoint x="1645" y="1040" />
            </Array>
          </mxGeometry>
        </mxCell>
        <mxCell id="UxnLPPTvP_sObnjLlX6k-127" value="sender&amp;nbsp;线程发送数据" style="text;html=1;align=center;verticalAlign=middle;resizable=0;points=[];autosize=1;strokeColor=none;fontSize=13;" parent="1" vertex="1">
          <mxGeometry x="1645" y="847.5" width="140" height="20" as="geometry" />
        </mxCell>
        <mxCell id="UxnLPPTvP_sObnjLlX6k-129" value="&lt;div&gt;Transaction&lt;/div&gt;&lt;div&gt;Coordinator&lt;/div&gt;&lt;div&gt;事务协调器&lt;/div&gt;" style="rounded=0;whiteSpace=wrap;html=1;shadow=0;comic=0;fontSize=13;strokeColor=#6c8ebf;strokeWidth=1;fillColor=#dae8fc;align=center;" parent="1" vertex="1">
          <mxGeometry x="2352.5" y="852.5" width="120" height="50" as="geometry" />
        </mxCell>
        <mxCell id="c2JDwz5LXpJiPW_2kjGZ-4" style="edgeStyle=orthogonalEdgeStyle;rounded=0;orthogonalLoop=1;jettySize=auto;html=1;entryX=0.5;entryY=0;entryDx=0;entryDy=0;dashed=1;" parent="1" source="UxnLPPTvP_sObnjLlX6k-130" target="c2JDwz5LXpJiPW_2kjGZ-3" edge="1">
          <mxGeometry relative="1" as="geometry" />
        </mxCell>
        <mxCell id="c2JDwz5LXpJiPW_2kjGZ-5" value="保存pid和事务的状态" style="edgeLabel;html=1;align=center;verticalAlign=middle;resizable=0;points=[];" parent="c2JDwz5LXpJiPW_2kjGZ-4" vertex="1" connectable="0">
          <mxGeometry x="-0.11" y="-5" relative="1" as="geometry">
            <mxPoint as="offset" />
          </mxGeometry>
        </mxCell>
        <mxCell id="UxnLPPTvP_sObnjLlX6k-130" value="&lt;div&gt;Transaction&lt;/div&gt;&lt;div&gt;Coordinator&lt;/div&gt;&lt;div&gt;事务协调器&lt;/div&gt;" style="rounded=0;whiteSpace=wrap;html=1;shadow=0;comic=0;fontSize=13;strokeColor=#6c8ebf;strokeWidth=1;fillColor=#87C7FF;align=center;" parent="1" vertex="1">
          <mxGeometry x="2350" y="1205" width="120" height="55" as="geometry" />
        </mxCell>
        <mxCell id="UxnLPPTvP_sObnjLlX6k-134" value="&lt;div&gt;&lt;span&gt;&lt;b&gt;&lt;font color=&quot;#99004d&quot;&gt;主事务协调器的选择：&lt;/font&gt;&lt;/b&gt;&lt;/span&gt;&lt;/div&gt;&lt;br&gt;&lt;div&gt;&lt;span&gt;hash(transaction_id)%50，计算当前事务在transaction的哪个分区上，则该分区的leader所在broker的事务协调器将作为主要的协调器&lt;/span&gt;&lt;span style=&quot;text-align: justify&quot;&gt;【其中50为该&lt;/span&gt;&lt;span style=&quot;font-size: 12px ; text-align: center&quot;&gt;__transaction_state主题的默认分区数&lt;/span&gt;&lt;span style=&quot;text-align: justify&quot;&gt;】&lt;/span&gt;&lt;/div&gt;" style="whiteSpace=wrap;html=1;rounded=0;shadow=0;comic=0;fontSize=13;strokeWidth=1;align=left;dashed=1;fillColor=none;" parent="1" vertex="1">
          <mxGeometry x="2313" y="1390" width="197" height="140" as="geometry" />
        </mxCell>
        <mxCell id="UxnLPPTvP_sObnjLlX6k-135" value="" style="edgeStyle=elbowEdgeStyle;elbow=horizontal;endArrow=classic;html=1;fontSize=13;strokeWidth=2;exitX=0;exitY=0.75;exitDx=0;exitDy=0;entryX=1;entryY=0.5;entryDx=0;entryDy=0;" parent="1" source="-DWdb9lvFDNPIEKAmtFA-97" target="UxnLPPTvP_sObnjLlX6k-83" edge="1">
          <mxGeometry width="50" height="50" relative="1" as="geometry">
            <mxPoint x="1905" y="922" as="sourcePoint" />
            <mxPoint x="1525" y="1200" as="targetPoint" />
            <Array as="points">
              <mxPoint x="1665" y="1050" />
            </Array>
          </mxGeometry>
        </mxCell>
        <mxCell id="UxnLPPTvP_sObnjLlX6k-136" value="broker进行应答" style="text;html=1;align=center;verticalAlign=middle;resizable=0;points=[];autosize=1;strokeColor=none;fontSize=13;" parent="1" vertex="1">
          <mxGeometry x="1665" y="890" width="100" height="20" as="geometry" />
        </mxCell>
        <mxCell id="UxnLPPTvP_sObnjLlX6k-137" value="&lt;font color=&quot;#99004d&quot;&gt;&lt;b&gt;broker的应答策略&lt;/b&gt;&lt;/font&gt;：&lt;br&gt;0：表示leader只要接收到数据就应答，不管leader是否将数据落盘【数据丢失的概率大】&lt;br&gt;1：表示leader将数据落盘后进行应答【数据丢失的概率小，适用于传输一些日志，可以容忍数据的丢失】&lt;br&gt;-1（all）：表示leader以及ISR中的follower都将数据落盘在进行应答【数据不会丢失，“至少一次”，但是数据可能会重复；如果开启了幂等性，broker只会留存一份数据】" style="whiteSpace=wrap;html=1;rounded=0;shadow=0;comic=0;fontSize=13;strokeColor=#000000;strokeWidth=1;fillColor=none;align=left;dashed=1;" parent="1" vertex="1">
          <mxGeometry x="1305" y="1260" width="402" height="150" as="geometry" />
        </mxCell>
        <mxCell id="UxnLPPTvP_sObnjLlX6k-141" value="成功应答后：&lt;br&gt;会将接收缓存队列和发送缓存队列中该消息进行清除" style="whiteSpace=wrap;html=1;rounded=0;shadow=0;dashed=1;comic=0;fontSize=13;strokeColor=#000000;strokeWidth=1;fillColor=none;align=center;" parent="1" vertex="1">
          <mxGeometry x="1071.75" y="1062.5" width="161.25" height="90" as="geometry" />
        </mxCell>
        <mxCell id="9v5I5Lgi_oh3hGJhgwNZ-3" value="&lt;span style=&quot;font-size: 13px&quot;&gt;每个缓存队列都需要向内存内存进行申请空间，&lt;/span&gt;&lt;span style=&quot;font-size: 13px ; text-align: justify&quot;&gt;用于存储消息到batch中。待消息发送完成后，释放空间到内存池&lt;/span&gt;&lt;span style=&quot;font-size: 13px&quot;&gt;&lt;br&gt;&lt;/span&gt;" style="text;html=1;strokeColor=none;fillColor=none;align=center;verticalAlign=middle;whiteSpace=wrap;rounded=0;" parent="1" vertex="1">
          <mxGeometry x="795" y="1140" width="227" height="80" as="geometry" />
        </mxCell>
        <mxCell id="9v5I5Lgi_oh3hGJhgwNZ-5" value="" style="rounded=1;whiteSpace=wrap;html=1;" parent="1" vertex="1">
          <mxGeometry x="1275" y="840" width="270" height="170" as="geometry" />
        </mxCell>
        <mxCell id="9v5I5Lgi_oh3hGJhgwNZ-6" value="NetworkClient" style="text;html=1;strokeColor=none;fillColor=none;align=center;verticalAlign=middle;whiteSpace=wrap;rounded=0;" parent="1" vertex="1">
          <mxGeometry x="1305" y="845" width="80" height="30" as="geometry" />
        </mxCell>
        <mxCell id="9v5I5Lgi_oh3hGJhgwNZ-13" value="" style="edgeStyle=orthogonalEdgeStyle;rounded=0;orthogonalLoop=1;jettySize=auto;html=1;entryX=0;entryY=0.5;entryDx=0;entryDy=0;strokeWidth=5;" parent="1" source="9v5I5Lgi_oh3hGJhgwNZ-10" target="9v5I5Lgi_oh3hGJhgwNZ-39" edge="1">
          <mxGeometry relative="1" as="geometry">
            <Array as="points">
              <mxPoint x="1215" y="925" />
              <mxPoint x="1215" y="745" />
            </Array>
          </mxGeometry>
        </mxCell>
        <mxCell id="9v5I5Lgi_oh3hGJhgwNZ-10" value="" style="rounded=0;whiteSpace=wrap;html=1;shadow=0;comic=0;fontSize=13;strokeColor=#000000;strokeWidth=1;fillColor=none;align=left;" parent="1" vertex="1">
          <mxGeometry x="985" y="910" width="30" height="30" as="geometry" />
        </mxCell>
        <mxCell id="9v5I5Lgi_oh3hGJhgwNZ-15" value="" style="rounded=0;whiteSpace=wrap;html=1;fillColor=#ffe6cc;strokeColor=#d79b00;" parent="1" vertex="1">
          <mxGeometry x="1295" y="875" width="237.5" height="55" as="geometry" />
        </mxCell>
        <mxCell id="9v5I5Lgi_oh3hGJhgwNZ-16" value="" style="rounded=0;whiteSpace=wrap;html=1;fillColor=#ffe6cc;strokeColor=#d79b00;" parent="1" vertex="1">
          <mxGeometry x="1295" y="940" width="237.5" height="60" as="geometry" />
        </mxCell>
        <mxCell id="9v5I5Lgi_oh3hGJhgwNZ-17" value="请求1" style="rounded=0;whiteSpace=wrap;html=1;fillColor=#fff2cc;strokeColor=#d6b656;" parent="1" vertex="1">
          <mxGeometry x="1475" y="880" width="40" height="40" as="geometry" />
        </mxCell>
        <mxCell id="9v5I5Lgi_oh3hGJhgwNZ-18" value="请求1" style="rounded=0;whiteSpace=wrap;html=1;fillColor=#fff2cc;strokeColor=#d6b656;" parent="1" vertex="1">
          <mxGeometry x="1475" y="950" width="40" height="40" as="geometry" />
        </mxCell>
        <mxCell id="9v5I5Lgi_oh3hGJhgwNZ-19" value="请求2" style="rounded=0;whiteSpace=wrap;html=1;fillColor=#fff2cc;strokeColor=#d6b656;" parent="1" vertex="1">
          <mxGeometry x="1427" y="881" width="40" height="40" as="geometry" />
        </mxCell>
        <mxCell id="9v5I5Lgi_oh3hGJhgwNZ-21" value="请求2" style="rounded=0;whiteSpace=wrap;html=1;fillColor=#fff2cc;strokeColor=#d6b656;" parent="1" vertex="1">
          <mxGeometry x="1429" y="950" width="40" height="40" as="geometry" />
        </mxCell>
        <mxCell id="9v5I5Lgi_oh3hGJhgwNZ-22" value="请求5" style="rounded=0;whiteSpace=wrap;html=1;fillColor=#fff2cc;strokeColor=#d6b656;" parent="1" vertex="1">
          <mxGeometry x="1335" y="882.5" width="40" height="40" as="geometry" />
        </mxCell>
        <mxCell id="9v5I5Lgi_oh3hGJhgwNZ-24" value="请求5" style="rounded=0;whiteSpace=wrap;html=1;fillColor=#fff2cc;strokeColor=#d6b656;" parent="1" vertex="1">
          <mxGeometry x="1335" y="950" width="40" height="40" as="geometry" />
        </mxCell>
        <mxCell id="9v5I5Lgi_oh3hGJhgwNZ-25" value="..." style="text;html=1;strokeColor=none;fillColor=none;align=center;verticalAlign=middle;whiteSpace=wrap;rounded=0;" parent="1" vertex="1">
          <mxGeometry x="1379.5" y="892.5" width="48" height="20" as="geometry" />
        </mxCell>
        <mxCell id="9v5I5Lgi_oh3hGJhgwNZ-26" value="..." style="text;html=1;strokeColor=none;fillColor=none;align=center;verticalAlign=middle;whiteSpace=wrap;rounded=0;" parent="1" vertex="1">
          <mxGeometry x="1379.5" y="957.5" width="35" height="25" as="geometry" />
        </mxCell>
        <mxCell id="9v5I5Lgi_oh3hGJhgwNZ-28" value="这个接收缓存队列以broker进行划分" style="whiteSpace=wrap;html=1;rounded=1;arcSize=50;align=center;verticalAlign=middle;strokeWidth=1;autosize=1;spacing=4;treeFolding=1;treeMoving=1;newEdgeStyle={&quot;edgeStyle&quot;:&quot;entityRelationEdgeStyle&quot;,&quot;startArrow&quot;:&quot;none&quot;,&quot;endArrow&quot;:&quot;none&quot;,&quot;segment&quot;:10,&quot;curved&quot;:1};" parent="1" vertex="1">
          <mxGeometry x="1455" y="782" width="140" height="40" as="geometry" />
        </mxCell>
        <mxCell id="9v5I5Lgi_oh3hGJhgwNZ-29" value="" style="edgeStyle=entityRelationEdgeStyle;startArrow=none;endArrow=none;segment=10;curved=1;rounded=0;strokeWidth=1;dashed=1;" parent="1" target="9v5I5Lgi_oh3hGJhgwNZ-28" edge="1">
          <mxGeometry relative="1" as="geometry">
            <mxPoint x="1405" y="875" as="sourcePoint" />
          </mxGeometry>
        </mxCell>
        <mxCell id="9v5I5Lgi_oh3hGJhgwNZ-34" value="sender线程" style="text;html=1;align=center;verticalAlign=middle;resizable=0;points=[];autosize=1;strokeColor=none;fillColor=none;" parent="1" vertex="1">
          <mxGeometry x="1265" y="704.5" width="80" height="20" as="geometry" />
        </mxCell>
        <mxCell id="9v5I5Lgi_oh3hGJhgwNZ-42" style="edgeStyle=orthogonalEdgeStyle;rounded=0;orthogonalLoop=1;jettySize=auto;html=1;entryX=0.5;entryY=0;entryDx=0;entryDy=0;strokeWidth=1;" parent="1" source="9v5I5Lgi_oh3hGJhgwNZ-39" target="9v5I5Lgi_oh3hGJhgwNZ-5" edge="1">
          <mxGeometry relative="1" as="geometry" />
        </mxCell>
        <mxCell id="9v5I5Lgi_oh3hGJhgwNZ-46" style="edgeStyle=orthogonalEdgeStyle;rounded=0;orthogonalLoop=1;jettySize=auto;html=1;entryX=0;entryY=0.5;entryDx=0;entryDy=0;strokeWidth=1;" parent="1" source="9v5I5Lgi_oh3hGJhgwNZ-39" target="UxnLPPTvP_sObnjLlX6k-83" edge="1">
          <mxGeometry relative="1" as="geometry">
            <Array as="points">
              <mxPoint x="1410" y="800" />
              <mxPoint x="1255" y="800" />
              <mxPoint x="1255" y="1175" />
            </Array>
          </mxGeometry>
        </mxCell>
        <mxCell id="9v5I5Lgi_oh3hGJhgwNZ-39" value="Sender&lt;br&gt;读取数据" style="rounded=0;whiteSpace=wrap;html=1;fillColor=default;" parent="1" vertex="1">
          <mxGeometry x="1353" y="720" width="115" height="50" as="geometry" />
        </mxCell>
        <mxCell id="9v5I5Lgi_oh3hGJhgwNZ-52" value="作用：打通缓冲队列和集群之间的通路，类似于高速公路" style="text;html=1;strokeColor=none;fillColor=none;align=center;verticalAlign=middle;whiteSpace=wrap;rounded=0;" parent="1" vertex="1">
          <mxGeometry x="1307.5" y="1208" width="192" height="30" as="geometry" />
        </mxCell>
        <mxCell id="9v5I5Lgi_oh3hGJhgwNZ-55" value="" style="curved=1;endArrow=classic;html=1;rounded=0;strokeWidth=1;exitX=1;exitY=0.75;exitDx=0;exitDy=0;entryX=0;entryY=0.5;entryDx=0;entryDy=0;dashed=1;" parent="1" source="UxnLPPTvP_sObnjLlX6k-48" target="UxnLPPTvP_sObnjLlX6k-141" edge="1">
          <mxGeometry width="50" height="50" relative="1" as="geometry">
            <mxPoint x="1185" y="1080" as="sourcePoint" />
            <mxPoint x="1235" y="1030" as="targetPoint" />
            <Array as="points">
              <mxPoint x="1072" y="1050" />
              <mxPoint x="1045" y="1080" />
            </Array>
          </mxGeometry>
        </mxCell>
        <mxCell id="9v5I5Lgi_oh3hGJhgwNZ-56" value="" style="curved=1;endArrow=classic;html=1;rounded=0;strokeWidth=1;exitX=0;exitY=0.5;exitDx=0;exitDy=0;entryX=1;entryY=0.5;entryDx=0;entryDy=0;dashed=1;" parent="1" source="9v5I5Lgi_oh3hGJhgwNZ-16" target="UxnLPPTvP_sObnjLlX6k-141" edge="1">
          <mxGeometry width="50" height="50" relative="1" as="geometry">
            <mxPoint x="1045" y="1012.5" as="sourcePoint" />
            <mxPoint x="1081.75" y="1117.5" as="targetPoint" />
            <Array as="points">
              <mxPoint x="1215" y="1050" />
              <mxPoint x="1265" y="1070" />
            </Array>
          </mxGeometry>
        </mxCell>
        <mxCell id="TE2P3VH-hTuM74N47Mns-1" style="edgeStyle=orthogonalEdgeStyle;rounded=0;orthogonalLoop=1;jettySize=auto;html=1;entryX=0.553;entryY=0.998;entryDx=0;entryDy=0;entryPerimeter=0;strokeWidth=2;" parent="1" source="1pMMFBoO8Ru1K0OPqwFa-1" target="1pMMFBoO8Ru1K0OPqwFa-7" edge="1">
          <mxGeometry relative="1" as="geometry">
            <Array as="points">
              <mxPoint x="2265" y="640" />
              <mxPoint x="2016" y="640" />
            </Array>
          </mxGeometry>
        </mxCell>
        <mxCell id="TE2P3VH-hTuM74N47Mns-2" value="辅助leader的选举" style="edgeLabel;html=1;align=center;verticalAlign=middle;resizable=0;points=[];" parent="TE2P3VH-hTuM74N47Mns-1" vertex="1" connectable="0">
          <mxGeometry x="0.4162" y="-1" relative="1" as="geometry">
            <mxPoint as="offset" />
          </mxGeometry>
        </mxCell>
        <mxCell id="1pMMFBoO8Ru1K0OPqwFa-1" value="Controller" style="rounded=0;whiteSpace=wrap;html=1;shadow=0;comic=0;fontSize=13;strokeColor=#b85450;strokeWidth=1;fillColor=#FF99CC;align=center;" parent="1" vertex="1">
          <mxGeometry x="2205" y="801.25" width="120" height="40" as="geometry" />
        </mxCell>
        <mxCell id="1pMMFBoO8Ru1K0OPqwFa-2" value="Controller" style="rounded=0;whiteSpace=wrap;html=1;shadow=0;comic=0;fontSize=13;strokeColor=#b85450;strokeWidth=1;fillColor=#f8cecc;align=center;" parent="1" vertex="1">
          <mxGeometry x="2195" y="1015" width="120" height="40" as="geometry" />
        </mxCell>
        <mxCell id="1pMMFBoO8Ru1K0OPqwFa-3" value="作用：帮助broker进行leader的选举" style="text;html=1;strokeColor=none;fillColor=none;align=center;verticalAlign=middle;whiteSpace=wrap;rounded=0;" parent="1" vertex="1">
          <mxGeometry x="2205" y="847.5" width="100" height="30" as="geometry" />
        </mxCell>
        <mxCell id="1pMMFBoO8Ru1K0OPqwFa-7" value="" style="rounded=0;whiteSpace=wrap;html=1;fontSize=13;" parent="1" vertex="1">
          <mxGeometry x="880" y="150" width="2055" height="440" as="geometry" />
        </mxCell>
        <mxCell id="1pMMFBoO8Ru1K0OPqwFa-8" value="zookeeper" style="text;html=1;strokeColor=none;fillColor=none;align=center;verticalAlign=middle;whiteSpace=wrap;rounded=0;fontSize=23;fontStyle=1" parent="1" vertex="1">
          <mxGeometry x="964" y="267.5" width="60" height="30" as="geometry" />
        </mxCell>
        <mxCell id="1pMMFBoO8Ru1K0OPqwFa-6" value="&lt;div style=&quot;text-align: justify&quot;&gt;&lt;span&gt;在0.9版的kafka出现之前，consumer目录存放offset消息；在0.9版本之后，为了减少消费者和zookeeper之间繁忙的通信，减少网络压力，kafka设计了一个主题专门用来存放offset。&lt;/span&gt;&lt;/div&gt;" style="text;html=1;strokeColor=none;fillColor=none;align=center;verticalAlign=middle;whiteSpace=wrap;rounded=0;fontSize=14;" parent="1" vertex="1">
          <mxGeometry x="911" y="317.5" width="178" height="135" as="geometry" />
        </mxCell>
        <mxCell id="-DWdb9lvFDNPIEKAmtFA-5" value="&lt;span style=&quot;font-size: 13px&quot;&gt;broker0&lt;/span&gt;&lt;br style=&quot;font-size: 13px&quot;&gt;&lt;span style=&quot;font-size: 13px&quot;&gt;id=0&lt;/span&gt;" style="ellipse;shape=cloud;whiteSpace=wrap;html=1;fillColor=#CC99FF;strokeColor=#9673a6;" parent="1" vertex="1">
          <mxGeometry x="2212.5" y="908.88" width="85" height="42.5" as="geometry" />
        </mxCell>
        <mxCell id="-DWdb9lvFDNPIEKAmtFA-6" value="&lt;span style=&quot;font-size: 13px&quot;&gt;broker1&lt;/span&gt;&lt;br style=&quot;font-size: 13px&quot;&gt;&lt;span style=&quot;font-size: 13px&quot;&gt;id=1&lt;/span&gt;" style="ellipse;shape=cloud;whiteSpace=wrap;html=1;fillColor=#CC99FF;strokeColor=#9673a6;" parent="1" vertex="1">
          <mxGeometry x="2207.5" y="1120" width="90" height="50" as="geometry" />
        </mxCell>
        <mxCell id="-DWdb9lvFDNPIEKAmtFA-95" value="" style="group" parent="1" vertex="1" connectable="0">
          <mxGeometry x="1817.5" y="1010" width="160" height="150" as="geometry" />
        </mxCell>
        <mxCell id="-DWdb9lvFDNPIEKAmtFA-81" value="" style="rounded=0;whiteSpace=wrap;html=1;fontSize=14;fontColor=#000000;strokeColor=#FFB570;strokeWidth=2;fillColor=none;" parent="-DWdb9lvFDNPIEKAmtFA-95" vertex="1">
          <mxGeometry width="160" height="150" as="geometry" />
        </mxCell>
        <mxCell id="-DWdb9lvFDNPIEKAmtFA-82" value="Partition0&amp;nbsp; Follower" style="rounded=1;whiteSpace=wrap;html=1;fontSize=14;fontColor=#000000;strokeColor=#FFB570;strokeWidth=2;fillColor=#FFB570;" parent="-DWdb9lvFDNPIEKAmtFA-95" vertex="1">
          <mxGeometry x="3.75" y="2.5" width="146.25" height="37.5" as="geometry" />
        </mxCell>
        <mxCell id="-DWdb9lvFDNPIEKAmtFA-83" value="0" style="whiteSpace=wrap;html=1;aspect=fixed;fontSize=14;fontColor=#000000;strokeColor=#FFB570;strokeWidth=2;fillColor=#FFFFFF;" parent="-DWdb9lvFDNPIEKAmtFA-95" vertex="1">
          <mxGeometry x="10" y="116.25" width="27.5" height="27.5" as="geometry" />
        </mxCell>
        <mxCell id="-DWdb9lvFDNPIEKAmtFA-84" value="1" style="whiteSpace=wrap;html=1;aspect=fixed;fontSize=14;fontColor=#000000;strokeColor=#FFB570;strokeWidth=2;fillColor=#FFFFFF;" parent="-DWdb9lvFDNPIEKAmtFA-95" vertex="1">
          <mxGeometry x="47.5" y="116.25" width="27.5" height="27.5" as="geometry" />
        </mxCell>
        <mxCell id="-DWdb9lvFDNPIEKAmtFA-87" value="index" style="shape=card;whiteSpace=wrap;html=1;fontSize=14;fontColor=#000000;strokeColor=#FFB570;strokeWidth=2;fillColor=#FFB570;" parent="-DWdb9lvFDNPIEKAmtFA-95" vertex="1">
          <mxGeometry x="10" y="50" width="40" height="52.5" as="geometry" />
        </mxCell>
        <mxCell id="-DWdb9lvFDNPIEKAmtFA-88" value="log" style="shape=card;whiteSpace=wrap;html=1;fontSize=14;fontColor=#000000;strokeColor=#FFB570;strokeWidth=2;fillColor=#FFB570;" parent="-DWdb9lvFDNPIEKAmtFA-95" vertex="1">
          <mxGeometry x="105" y="47.5" width="40" height="52.5" as="geometry" />
        </mxCell>
        <mxCell id="-DWdb9lvFDNPIEKAmtFA-89" value="2" style="whiteSpace=wrap;html=1;aspect=fixed;fontSize=14;fontColor=#000000;strokeColor=#FFB570;strokeWidth=2;fillColor=#FFFFFF;" parent="-DWdb9lvFDNPIEKAmtFA-95" vertex="1">
          <mxGeometry x="88" y="117.25" width="27.5" height="27.5" as="geometry" />
        </mxCell>
        <mxCell id="-DWdb9lvFDNPIEKAmtFA-90" value="3" style="whiteSpace=wrap;html=1;aspect=fixed;fontSize=14;fontColor=#000000;strokeColor=#FFB570;strokeWidth=2;fillColor=#FFFFFF;" parent="-DWdb9lvFDNPIEKAmtFA-95" vertex="1">
          <mxGeometry x="122.5" y="117.25" width="27.5" height="27.5" as="geometry" />
        </mxCell>
        <mxCell id="-DWdb9lvFDNPIEKAmtFA-91" value="Partition0&amp;nbsp; Follower" style="rounded=1;whiteSpace=wrap;html=1;fontSize=14;fontColor=#000000;strokeColor=#FFB570;strokeWidth=2;fillColor=#FFB570;" parent="-DWdb9lvFDNPIEKAmtFA-95" vertex="1">
          <mxGeometry x="3.75" y="2.5" width="146.25" height="37.5" as="geometry" />
        </mxCell>
        <mxCell id="-DWdb9lvFDNPIEKAmtFA-92" value="" style="rounded=0;whiteSpace=wrap;html=1;fontSize=14;fontColor=#000000;strokeColor=#FFB570;strokeWidth=2;fillColor=none;" parent="-DWdb9lvFDNPIEKAmtFA-95" vertex="1">
          <mxGeometry width="160" height="150" as="geometry" />
        </mxCell>
        <mxCell id="-DWdb9lvFDNPIEKAmtFA-93" value="log" style="shape=card;whiteSpace=wrap;html=1;fontSize=14;fontColor=#000000;strokeColor=#FFB570;strokeWidth=2;fillColor=#FFB570;" parent="-DWdb9lvFDNPIEKAmtFA-95" vertex="1">
          <mxGeometry x="105" y="47.5" width="40" height="52.5" as="geometry" />
        </mxCell>
        <mxCell id="-DWdb9lvFDNPIEKAmtFA-94" value="index" style="shape=card;whiteSpace=wrap;html=1;fontSize=14;fontColor=#000000;strokeColor=#FFB570;strokeWidth=2;fillColor=#FFB570;" parent="-DWdb9lvFDNPIEKAmtFA-95" vertex="1">
          <mxGeometry x="10" y="50" width="40" height="52.5" as="geometry" />
        </mxCell>
        <mxCell id="-DWdb9lvFDNPIEKAmtFA-146" value="" style="edgeStyle=orthogonalEdgeStyle;rounded=0;orthogonalLoop=1;jettySize=auto;html=1;fontSize=14;fontColor=#000000;entryX=0.5;entryY=0;entryDx=0;entryDy=0;" parent="1" source="-DWdb9lvFDNPIEKAmtFA-113" target="-DWdb9lvFDNPIEKAmtFA-136" edge="1">
          <mxGeometry relative="1" as="geometry" />
        </mxCell>
        <mxCell id="-DWdb9lvFDNPIEKAmtFA-118" value="Partition0&amp;nbsp; Follower" style="rounded=1;whiteSpace=wrap;html=1;fontSize=14;fontColor=#000000;strokeColor=#FFB570;strokeWidth=2;fillColor=#66B2FF;align=center;" parent="1" vertex="1">
          <mxGeometry x="2028.75" y="805" width="156.25" height="37.5" as="geometry" />
        </mxCell>
        <mxCell id="-DWdb9lvFDNPIEKAmtFA-148" value="" style="group" parent="1" vertex="1" connectable="0">
          <mxGeometry x="2025" y="1015" width="160" height="150.13" as="geometry" />
        </mxCell>
        <mxCell id="-DWdb9lvFDNPIEKAmtFA-136" value="" style="rounded=0;whiteSpace=wrap;html=1;fontSize=14;fontColor=#000000;strokeColor=#007FFF;strokeWidth=2;fillColor=none;" parent="-DWdb9lvFDNPIEKAmtFA-148" vertex="1">
          <mxGeometry width="160" height="150" as="geometry" />
        </mxCell>
        <mxCell id="-DWdb9lvFDNPIEKAmtFA-137" value="0" style="whiteSpace=wrap;html=1;aspect=fixed;fontSize=14;fontColor=#000000;strokeColor=#007FFF;strokeWidth=2;fillColor=default;" parent="-DWdb9lvFDNPIEKAmtFA-148" vertex="1">
          <mxGeometry x="10" y="116.25" width="27.5" height="27.5" as="geometry" />
        </mxCell>
        <mxCell id="-DWdb9lvFDNPIEKAmtFA-138" value="1" style="whiteSpace=wrap;html=1;aspect=fixed;fontSize=14;fontColor=#000000;strokeColor=#007FFF;strokeWidth=2;fillColor=default;" parent="-DWdb9lvFDNPIEKAmtFA-148" vertex="1">
          <mxGeometry x="47.5" y="116.25" width="27.5" height="27.5" as="geometry" />
        </mxCell>
        <mxCell id="-DWdb9lvFDNPIEKAmtFA-139" value="2" style="whiteSpace=wrap;html=1;aspect=fixed;fontSize=14;fontColor=#000000;strokeColor=#007FFF;strokeWidth=2;fillColor=default;" parent="-DWdb9lvFDNPIEKAmtFA-148" vertex="1">
          <mxGeometry x="88" y="117.25" width="27.5" height="27.5" as="geometry" />
        </mxCell>
        <mxCell id="-DWdb9lvFDNPIEKAmtFA-140" value="3" style="whiteSpace=wrap;html=1;aspect=fixed;fontSize=14;fontColor=#000000;strokeColor=#007FFF;strokeWidth=2;fillColor=default;" parent="-DWdb9lvFDNPIEKAmtFA-148" vertex="1">
          <mxGeometry x="122.5" y="117.25" width="27.5" height="27.5" as="geometry" />
        </mxCell>
        <mxCell id="-DWdb9lvFDNPIEKAmtFA-141" value="log" style="shape=card;whiteSpace=wrap;html=1;fontSize=14;fontColor=#000000;strokeColor=#007FFF;strokeWidth=2;fillColor=#007FFF;" parent="-DWdb9lvFDNPIEKAmtFA-148" vertex="1">
          <mxGeometry x="105" y="47.5" width="40" height="52.5" as="geometry" />
        </mxCell>
        <mxCell id="-DWdb9lvFDNPIEKAmtFA-142" value="index" style="shape=card;whiteSpace=wrap;html=1;fontSize=14;fontColor=#000000;strokeColor=#007FFF;strokeWidth=2;fillColor=#007FFF;" parent="-DWdb9lvFDNPIEKAmtFA-148" vertex="1">
          <mxGeometry x="10" y="50" width="40" height="52.5" as="geometry" />
        </mxCell>
        <mxCell id="-DWdb9lvFDNPIEKAmtFA-143" value="Partition1&amp;nbsp; Leader" style="rounded=1;whiteSpace=wrap;html=1;fontSize=14;fontColor=#000000;strokeColor=#007FFF;strokeWidth=2;fillColor=#007FFF;align=left;arcSize=0;" parent="-DWdb9lvFDNPIEKAmtFA-148" vertex="1">
          <mxGeometry x="3.75" y="2.5" width="156.25" height="37.5" as="geometry" />
        </mxCell>
        <mxCell id="-DWdb9lvFDNPIEKAmtFA-144" value="" style="verticalLabelPosition=bottom;verticalAlign=top;html=1;shape=mxgraph.basic.star;fontSize=14;fontColor=#000000;strokeColor=none;strokeWidth=2;fillColor=#FFFFFF;" parent="-DWdb9lvFDNPIEKAmtFA-148" vertex="1">
          <mxGeometry x="120" y="8.129999999999995" width="30" height="26.25" as="geometry" />
        </mxCell>
        <mxCell id="-DWdb9lvFDNPIEKAmtFA-156" value="" style="ellipse;whiteSpace=wrap;html=1;aspect=fixed;fontSize=14;fontColor=#000000;strokeColor=#CC0000;strokeWidth=2;fillColor=none;dashed=1;" parent="-DWdb9lvFDNPIEKAmtFA-148" vertex="1">
          <mxGeometry x="80" y="106.38" width="43.75" height="43.75" as="geometry" />
        </mxCell>
        <mxCell id="-DWdb9lvFDNPIEKAmtFA-153" value="" style="group" parent="1" vertex="1" connectable="0">
          <mxGeometry x="1817.5" y="797.25" width="160" height="150" as="geometry" />
        </mxCell>
        <mxCell id="-DWdb9lvFDNPIEKAmtFA-97" value="" style="rounded=0;whiteSpace=wrap;html=1;fontSize=14;fontColor=#000000;strokeColor=#FFB570;strokeWidth=2;fillColor=none;" parent="-DWdb9lvFDNPIEKAmtFA-153" vertex="1">
          <mxGeometry width="160" height="150" as="geometry" />
        </mxCell>
        <mxCell id="-DWdb9lvFDNPIEKAmtFA-99" value="0" style="whiteSpace=wrap;html=1;aspect=fixed;fontSize=14;fontColor=#000000;strokeColor=#FFB570;strokeWidth=2;fillColor=#FFFFFF;" parent="-DWdb9lvFDNPIEKAmtFA-153" vertex="1">
          <mxGeometry x="10" y="116.25" width="27.5" height="27.5" as="geometry" />
        </mxCell>
        <mxCell id="-DWdb9lvFDNPIEKAmtFA-100" value="1" style="whiteSpace=wrap;html=1;aspect=fixed;fontSize=14;fontColor=#000000;strokeColor=#FFB570;strokeWidth=2;fillColor=#FFFFFF;" parent="-DWdb9lvFDNPIEKAmtFA-153" vertex="1">
          <mxGeometry x="47.5" y="116.25" width="27.5" height="27.5" as="geometry" />
        </mxCell>
        <mxCell id="-DWdb9lvFDNPIEKAmtFA-103" value="2" style="whiteSpace=wrap;html=1;aspect=fixed;fontSize=14;fontColor=#000000;strokeColor=#FFB570;strokeWidth=2;fillColor=#FFFFFF;" parent="-DWdb9lvFDNPIEKAmtFA-153" vertex="1">
          <mxGeometry x="88" y="117.25" width="27.5" height="27.5" as="geometry" />
        </mxCell>
        <mxCell id="-DWdb9lvFDNPIEKAmtFA-104" value="3" style="whiteSpace=wrap;html=1;aspect=fixed;fontSize=14;fontColor=#000000;strokeColor=#FFB570;strokeWidth=2;fillColor=#FFFFFF;" parent="-DWdb9lvFDNPIEKAmtFA-153" vertex="1">
          <mxGeometry x="122.5" y="117.25" width="27.5" height="27.5" as="geometry" />
        </mxCell>
        <mxCell id="-DWdb9lvFDNPIEKAmtFA-108" value="index" style="shape=card;whiteSpace=wrap;html=1;fontSize=14;fontColor=#000000;strokeColor=#FFB570;strokeWidth=2;fillColor=#FF9933;" parent="-DWdb9lvFDNPIEKAmtFA-153" vertex="1">
          <mxGeometry x="10" y="50" width="40" height="52.5" as="geometry" />
        </mxCell>
        <mxCell id="-DWdb9lvFDNPIEKAmtFA-149" value="Partition0&amp;nbsp; Leader" style="rounded=1;whiteSpace=wrap;html=1;fontSize=14;fontColor=#000000;strokeColor=#FFB570;strokeWidth=2;fillColor=#FF9933;align=left;" parent="-DWdb9lvFDNPIEKAmtFA-153" vertex="1">
          <mxGeometry x="3.75" y="2.5" width="156.25" height="37.5" as="geometry" />
        </mxCell>
        <mxCell id="-DWdb9lvFDNPIEKAmtFA-150" value="" style="verticalLabelPosition=bottom;verticalAlign=top;html=1;shape=mxgraph.basic.star;fontSize=14;fontColor=#000000;strokeColor=none;strokeWidth=2;fillColor=#FFFFFF;" parent="-DWdb9lvFDNPIEKAmtFA-153" vertex="1">
          <mxGeometry x="122.5" y="11.25" width="20" height="20" as="geometry" />
        </mxCell>
        <mxCell id="-DWdb9lvFDNPIEKAmtFA-151" value="log" style="shape=card;whiteSpace=wrap;html=1;fontSize=14;fontColor=#000000;strokeColor=#FFB570;strokeWidth=2;fillColor=#FF9933;" parent="-DWdb9lvFDNPIEKAmtFA-153" vertex="1">
          <mxGeometry x="105" y="47.5" width="40" height="52.5" as="geometry" />
        </mxCell>
        <mxCell id="-DWdb9lvFDNPIEKAmtFA-155" value="comsumer_topic" style="rounded=0;whiteSpace=wrap;html=1;fontSize=14;fontColor=#000000;strokeColor=#000000;strokeWidth=1;fillColor=default;" parent="1" vertex="1">
          <mxGeometry x="2350" y="908.88" width="120" height="47.25" as="geometry" />
        </mxCell>
        <mxCell id="-DWdb9lvFDNPIEKAmtFA-158" value="__consumer_offsets" style="rounded=0;whiteSpace=wrap;html=1;fontSize=14;fontColor=#000000;strokeColor=#000000;strokeWidth=1;fillColor=default;" parent="1" vertex="1">
          <mxGeometry x="2345" y="1121.37" width="135" height="47.25" as="geometry" />
        </mxCell>
        <mxCell id="-DWdb9lvFDNPIEKAmtFA-160" value="" style="curved=1;endArrow=classic;html=1;rounded=0;dashed=1;fontSize=14;fontColor=#000000;strokeColor=#CC0000;exitX=0.5;exitY=0;exitDx=0;exitDy=0;entryX=0.014;entryY=0.588;entryDx=0;entryDy=0;entryPerimeter=0;startArrow=none;" parent="1" source="-DWdb9lvFDNPIEKAmtFA-208" target="-DWdb9lvFDNPIEKAmtFA-158" edge="1">
          <mxGeometry width="50" height="50" relative="1" as="geometry">
            <mxPoint x="2145" y="1090" as="sourcePoint" />
            <mxPoint x="2195" y="1040" as="targetPoint" />
            <Array as="points">
              <mxPoint x="2290" y="1120" />
            </Array>
          </mxGeometry>
        </mxCell>
        <mxCell id="-DWdb9lvFDNPIEKAmtFA-7" value="&lt;span style=&quot;font-size: 13px&quot;&gt;broker2&lt;/span&gt;&lt;br style=&quot;font-size: 13px&quot;&gt;&lt;span style=&quot;font-size: 13px&quot;&gt;id=2&lt;/span&gt;" style="ellipse;shape=cloud;whiteSpace=wrap;html=1;fillColor=#CC99FF;strokeColor=#9673a6;" parent="1" vertex="1">
          <mxGeometry x="2197.5" y="1269.9983333333334" width="100" height="65.83333333333333" as="geometry" />
        </mxCell>
        <mxCell id="-DWdb9lvFDNPIEKAmtFA-178" value="" style="group" parent="1" vertex="1" connectable="0">
          <mxGeometry x="1825" y="1208" width="160" height="150" as="geometry" />
        </mxCell>
        <mxCell id="-DWdb9lvFDNPIEKAmtFA-179" value="" style="rounded=0;whiteSpace=wrap;html=1;fontSize=14;fontColor=#000000;strokeColor=#FFB570;strokeWidth=2;fillColor=none;" parent="-DWdb9lvFDNPIEKAmtFA-178" vertex="1">
          <mxGeometry width="160" height="150" as="geometry" />
        </mxCell>
        <mxCell id="-DWdb9lvFDNPIEKAmtFA-180" value="Partition0&amp;nbsp; Follower" style="rounded=1;whiteSpace=wrap;html=1;fontSize=14;fontColor=#000000;strokeColor=#FFB570;strokeWidth=2;fillColor=#FFB570;" parent="-DWdb9lvFDNPIEKAmtFA-178" vertex="1">
          <mxGeometry x="3.75" y="2.5" width="146.25" height="37.5" as="geometry" />
        </mxCell>
        <mxCell id="-DWdb9lvFDNPIEKAmtFA-181" value="0" style="whiteSpace=wrap;html=1;aspect=fixed;fontSize=14;fontColor=#000000;strokeColor=#FFB570;strokeWidth=2;fillColor=#FFFFFF;" parent="-DWdb9lvFDNPIEKAmtFA-178" vertex="1">
          <mxGeometry x="10" y="116.25" width="27.5" height="27.5" as="geometry" />
        </mxCell>
        <mxCell id="-DWdb9lvFDNPIEKAmtFA-182" value="1" style="whiteSpace=wrap;html=1;aspect=fixed;fontSize=14;fontColor=#000000;strokeColor=#FFB570;strokeWidth=2;fillColor=#FFFFFF;" parent="-DWdb9lvFDNPIEKAmtFA-178" vertex="1">
          <mxGeometry x="47.5" y="116.25" width="27.5" height="27.5" as="geometry" />
        </mxCell>
        <mxCell id="-DWdb9lvFDNPIEKAmtFA-183" value="index" style="shape=card;whiteSpace=wrap;html=1;fontSize=14;fontColor=#000000;strokeColor=#FFB570;strokeWidth=2;fillColor=#FFB570;" parent="-DWdb9lvFDNPIEKAmtFA-178" vertex="1">
          <mxGeometry x="10" y="50" width="40" height="52.5" as="geometry" />
        </mxCell>
        <mxCell id="-DWdb9lvFDNPIEKAmtFA-184" value="log" style="shape=card;whiteSpace=wrap;html=1;fontSize=14;fontColor=#000000;strokeColor=#FFB570;strokeWidth=2;fillColor=#FFB570;" parent="-DWdb9lvFDNPIEKAmtFA-178" vertex="1">
          <mxGeometry x="105" y="47.5" width="40" height="52.5" as="geometry" />
        </mxCell>
        <mxCell id="-DWdb9lvFDNPIEKAmtFA-185" value="2" style="whiteSpace=wrap;html=1;aspect=fixed;fontSize=14;fontColor=#000000;strokeColor=#FFB570;strokeWidth=2;fillColor=#FFFFFF;" parent="-DWdb9lvFDNPIEKAmtFA-178" vertex="1">
          <mxGeometry x="88" y="117.25" width="27.5" height="27.5" as="geometry" />
        </mxCell>
        <mxCell id="-DWdb9lvFDNPIEKAmtFA-186" value="3" style="whiteSpace=wrap;html=1;aspect=fixed;fontSize=14;fontColor=#000000;strokeColor=#FFB570;strokeWidth=2;fillColor=#FFFFFF;" parent="-DWdb9lvFDNPIEKAmtFA-178" vertex="1">
          <mxGeometry x="122.5" y="117.25" width="27.5" height="27.5" as="geometry" />
        </mxCell>
        <mxCell id="-DWdb9lvFDNPIEKAmtFA-187" value="Partition0&amp;nbsp; Follower" style="rounded=1;whiteSpace=wrap;html=1;fontSize=14;fontColor=#000000;strokeColor=#FFB570;strokeWidth=2;fillColor=#FFB570;" parent="-DWdb9lvFDNPIEKAmtFA-178" vertex="1">
          <mxGeometry x="3.75" y="2.5" width="146.25" height="37.5" as="geometry" />
        </mxCell>
        <mxCell id="-DWdb9lvFDNPIEKAmtFA-188" value="" style="rounded=0;whiteSpace=wrap;html=1;fontSize=14;fontColor=#000000;strokeColor=#FFB570;strokeWidth=2;fillColor=none;" parent="-DWdb9lvFDNPIEKAmtFA-178" vertex="1">
          <mxGeometry width="160" height="150" as="geometry" />
        </mxCell>
        <mxCell id="-DWdb9lvFDNPIEKAmtFA-189" value="log" style="shape=card;whiteSpace=wrap;html=1;fontSize=14;fontColor=#000000;strokeColor=#FFB570;strokeWidth=2;fillColor=#FFB570;" parent="-DWdb9lvFDNPIEKAmtFA-178" vertex="1">
          <mxGeometry x="105" y="47.5" width="40" height="52.5" as="geometry" />
        </mxCell>
        <mxCell id="-DWdb9lvFDNPIEKAmtFA-190" value="index" style="shape=card;whiteSpace=wrap;html=1;fontSize=14;fontColor=#000000;strokeColor=#FFB570;strokeWidth=2;fillColor=#FFB570;" parent="-DWdb9lvFDNPIEKAmtFA-178" vertex="1">
          <mxGeometry x="10" y="50" width="40" height="52.5" as="geometry" />
        </mxCell>
        <mxCell id="-DWdb9lvFDNPIEKAmtFA-192" value="" style="group" parent="1" vertex="1" connectable="0">
          <mxGeometry x="2025" y="802.5" width="160" height="150" as="geometry" />
        </mxCell>
        <mxCell id="-DWdb9lvFDNPIEKAmtFA-113" value="" style="rounded=0;whiteSpace=wrap;html=1;fontSize=14;fontColor=#000000;strokeColor=#66B2FF;strokeWidth=2;fillColor=none;" parent="-DWdb9lvFDNPIEKAmtFA-192" vertex="1">
          <mxGeometry width="160" height="150" as="geometry" />
        </mxCell>
        <mxCell id="-DWdb9lvFDNPIEKAmtFA-114" value="0" style="whiteSpace=wrap;html=1;aspect=fixed;fontSize=14;fontColor=#000000;strokeColor=#66B2FF;strokeWidth=2;fillColor=#FFFFFF;" parent="-DWdb9lvFDNPIEKAmtFA-192" vertex="1">
          <mxGeometry x="10" y="116.25" width="27.5" height="27.5" as="geometry" />
        </mxCell>
        <mxCell id="-DWdb9lvFDNPIEKAmtFA-115" value="1" style="whiteSpace=wrap;html=1;aspect=fixed;fontSize=14;fontColor=#000000;strokeColor=#66B2FF;strokeWidth=2;fillColor=#FFFFFF;" parent="-DWdb9lvFDNPIEKAmtFA-192" vertex="1">
          <mxGeometry x="47.5" y="116.25" width="27.5" height="27.5" as="geometry" />
        </mxCell>
        <mxCell id="-DWdb9lvFDNPIEKAmtFA-116" value="2" style="whiteSpace=wrap;html=1;aspect=fixed;fontSize=14;fontColor=#000000;strokeColor=#66B2FF;strokeWidth=2;fillColor=#FFFFFF;" parent="-DWdb9lvFDNPIEKAmtFA-192" vertex="1">
          <mxGeometry x="88" y="117.25" width="27.5" height="27.5" as="geometry" />
        </mxCell>
        <mxCell id="-DWdb9lvFDNPIEKAmtFA-117" value="3" style="whiteSpace=wrap;html=1;aspect=fixed;fontSize=14;fontColor=#000000;strokeColor=#66B2FF;strokeWidth=2;fillColor=#FFFFFF;" parent="-DWdb9lvFDNPIEKAmtFA-192" vertex="1">
          <mxGeometry x="122.5" y="117.25" width="27.5" height="27.5" as="geometry" />
        </mxCell>
        <mxCell id="-DWdb9lvFDNPIEKAmtFA-119" value="log" style="shape=card;whiteSpace=wrap;html=1;fontSize=14;fontColor=#000000;strokeColor=#66B2FF;strokeWidth=2;fillColor=#66B2FF;" parent="-DWdb9lvFDNPIEKAmtFA-192" vertex="1">
          <mxGeometry x="105" y="47.5" width="40" height="52.5" as="geometry" />
        </mxCell>
        <mxCell id="-DWdb9lvFDNPIEKAmtFA-120" value="index" style="shape=card;whiteSpace=wrap;html=1;fontSize=14;fontColor=#000000;strokeColor=#66B2FF;strokeWidth=2;fillColor=#66B2FF;" parent="-DWdb9lvFDNPIEKAmtFA-192" vertex="1">
          <mxGeometry x="10" y="50" width="40" height="52.5" as="geometry" />
        </mxCell>
        <mxCell id="-DWdb9lvFDNPIEKAmtFA-121" value="Partition1&amp;nbsp; Follower" style="rounded=1;whiteSpace=wrap;html=1;fontSize=14;fontColor=#000000;strokeColor=#66B2FF;strokeWidth=2;fillColor=#66B2FF;align=center;" parent="-DWdb9lvFDNPIEKAmtFA-192" vertex="1">
          <mxGeometry x="3.75" y="2.5" width="156.25" height="37.5" as="geometry" />
        </mxCell>
        <mxCell id="-DWdb9lvFDNPIEKAmtFA-193" value="" style="group" parent="1" vertex="1" connectable="0">
          <mxGeometry x="2025" y="1208" width="160" height="150" as="geometry" />
        </mxCell>
        <mxCell id="-DWdb9lvFDNPIEKAmtFA-194" value="" style="rounded=0;whiteSpace=wrap;html=1;fontSize=14;fontColor=#000000;strokeColor=#66B2FF;strokeWidth=2;fillColor=none;" parent="-DWdb9lvFDNPIEKAmtFA-193" vertex="1">
          <mxGeometry width="160" height="150" as="geometry" />
        </mxCell>
        <mxCell id="-DWdb9lvFDNPIEKAmtFA-195" value="0" style="whiteSpace=wrap;html=1;aspect=fixed;fontSize=14;fontColor=#000000;strokeColor=#66B2FF;strokeWidth=2;fillColor=#FFFFFF;" parent="-DWdb9lvFDNPIEKAmtFA-193" vertex="1">
          <mxGeometry x="10" y="116.25" width="27.5" height="27.5" as="geometry" />
        </mxCell>
        <mxCell id="-DWdb9lvFDNPIEKAmtFA-196" value="1" style="whiteSpace=wrap;html=1;aspect=fixed;fontSize=14;fontColor=#000000;strokeColor=#66B2FF;strokeWidth=2;fillColor=#FFFFFF;" parent="-DWdb9lvFDNPIEKAmtFA-193" vertex="1">
          <mxGeometry x="47.5" y="116.25" width="27.5" height="27.5" as="geometry" />
        </mxCell>
        <mxCell id="-DWdb9lvFDNPIEKAmtFA-197" value="2" style="whiteSpace=wrap;html=1;aspect=fixed;fontSize=14;fontColor=#000000;strokeColor=#66B2FF;strokeWidth=2;fillColor=#FFFFFF;" parent="-DWdb9lvFDNPIEKAmtFA-193" vertex="1">
          <mxGeometry x="88" y="117.25" width="27.5" height="27.5" as="geometry" />
        </mxCell>
        <mxCell id="-DWdb9lvFDNPIEKAmtFA-198" value="3" style="whiteSpace=wrap;html=1;aspect=fixed;fontSize=14;fontColor=#000000;strokeColor=#66B2FF;strokeWidth=2;fillColor=#FFFFFF;" parent="-DWdb9lvFDNPIEKAmtFA-193" vertex="1">
          <mxGeometry x="122.5" y="117.25" width="27.5" height="27.5" as="geometry" />
        </mxCell>
        <mxCell id="-DWdb9lvFDNPIEKAmtFA-199" value="log" style="shape=card;whiteSpace=wrap;html=1;fontSize=14;fontColor=#000000;strokeColor=#66B2FF;strokeWidth=2;fillColor=#66B2FF;" parent="-DWdb9lvFDNPIEKAmtFA-193" vertex="1">
          <mxGeometry x="105" y="47.5" width="40" height="52.5" as="geometry" />
        </mxCell>
        <mxCell id="-DWdb9lvFDNPIEKAmtFA-200" value="index" style="shape=card;whiteSpace=wrap;html=1;fontSize=14;fontColor=#000000;strokeColor=#66B2FF;strokeWidth=2;fillColor=#66B2FF;" parent="-DWdb9lvFDNPIEKAmtFA-193" vertex="1">
          <mxGeometry x="10" y="50" width="40" height="52.5" as="geometry" />
        </mxCell>
        <mxCell id="-DWdb9lvFDNPIEKAmtFA-201" value="Partition1&amp;nbsp; Follower" style="rounded=1;whiteSpace=wrap;html=1;fontSize=14;fontColor=#000000;strokeColor=#66B2FF;strokeWidth=2;fillColor=#66B2FF;align=center;" parent="-DWdb9lvFDNPIEKAmtFA-193" vertex="1">
          <mxGeometry x="3.75" y="2.5" width="156.25" height="37.5" as="geometry" />
        </mxCell>
        <mxCell id="-DWdb9lvFDNPIEKAmtFA-202" value="Controller" style="rounded=0;whiteSpace=wrap;html=1;shadow=0;comic=0;fontSize=13;strokeColor=#b85450;strokeWidth=1;fillColor=#f8cecc;align=center;" parent="1" vertex="1">
          <mxGeometry x="2205" y="1205" width="120" height="40" as="geometry" />
        </mxCell>
        <mxCell id="-DWdb9lvFDNPIEKAmtFA-203" value="&lt;div&gt;Transaction&lt;/div&gt;&lt;div&gt;Coordinator&lt;/div&gt;&lt;div&gt;事务协调器&lt;/div&gt;" style="rounded=0;whiteSpace=wrap;html=1;shadow=0;comic=0;fontSize=13;strokeColor=#6c8ebf;strokeWidth=1;fillColor=#dae8fc;align=center;" parent="1" vertex="1">
          <mxGeometry x="2345" y="1010" width="135" height="50" as="geometry" />
        </mxCell>
        <mxCell id="-DWdb9lvFDNPIEKAmtFA-204" value="Text" style="text;html=1;strokeColor=none;fillColor=none;align=center;verticalAlign=middle;whiteSpace=wrap;rounded=0;dashed=1;fontSize=14;fontColor=#000000;" parent="1" vertex="1">
          <mxGeometry x="1915" y="1080" width="60" height="30" as="geometry" />
        </mxCell>
        <mxCell id="-DWdb9lvFDNPIEKAmtFA-207" value="Text" style="text;html=1;strokeColor=none;fillColor=none;align=center;verticalAlign=middle;whiteSpace=wrap;rounded=0;dashed=1;fontSize=14;fontColor=#000000;" parent="1" vertex="1">
          <mxGeometry x="1915" y="1080" width="60" height="30" as="geometry" />
        </mxCell>
        <mxCell id="-DWdb9lvFDNPIEKAmtFA-209" value="" style="verticalLabelPosition=bottom;verticalAlign=top;html=1;shape=mxgraph.basic.star;fontSize=14;fontColor=#000000;strokeColor=none;strokeWidth=2;fillColor=#FFFFFF;" parent="1" vertex="1">
          <mxGeometry x="2295" y="810" width="20" height="20" as="geometry" />
        </mxCell>
        <mxCell id="-DWdb9lvFDNPIEKAmtFA-210" value="" style="verticalLabelPosition=bottom;verticalAlign=top;html=1;shape=mxgraph.basic.star;fontSize=14;fontColor=#000000;strokeColor=none;strokeWidth=2;fillColor=#FFFFFF;" parent="1" vertex="1">
          <mxGeometry x="2450" y="1215" width="20" height="20" as="geometry" />
        </mxCell>
        <mxCell id="MnBA1TXpeBqanZ1rdVY3-5" value="" style="rounded=0;whiteSpace=wrap;html=1;fontSize=14;fontColor=#CC0000;fillColor=none;strokeColor=#CC0000;" parent="1" vertex="1">
          <mxGeometry x="1360" y="395" width="75" height="165" as="geometry" />
        </mxCell>
        <mxCell id="MnBA1TXpeBqanZ1rdVY3-8" value=".index" style="shape=note;whiteSpace=wrap;html=1;backgroundOutline=1;darkOpacity=0.05;fontSize=14;fontColor=#CC0000;strokeColor=#CC0000;fillColor=none;" parent="1" vertex="1">
          <mxGeometry x="2065" y="390" width="70" height="90" as="geometry" />
        </mxCell>
        <mxCell id="MnBA1TXpeBqanZ1rdVY3-10" value="&lt;div&gt;&lt;span&gt;1. topic&amp;nbsp;是逻辑上的概念&lt;/span&gt;&lt;/div&gt;2. partition是物理上的概念&lt;br&gt;3. 每个partition对应一个log文件&lt;br&gt;4. 一个log文件可分为多个segement[1G]&lt;br&gt;5. 一个segement分为.index文件、.log文件以及.timeindex文件&lt;br&gt;6.&amp;nbsp;kafka存储采用的&lt;font color=&quot;#cc0000&quot;&gt;分片+索引&lt;/font&gt;的机制" style="text;html=1;strokeColor=default;fillColor=#FFF2CC;align=left;verticalAlign=middle;whiteSpace=wrap;rounded=0;fontSize=14;fontColor=#000000;" parent="1" vertex="1">
          <mxGeometry x="2065" y="235" width="267.5" height="120" as="geometry" />
        </mxCell>
        <mxCell id="MnBA1TXpeBqanZ1rdVY3-13" value=".log" style="shape=note;whiteSpace=wrap;html=1;backgroundOutline=1;darkOpacity=0.05;fontSize=14;fontColor=#CC0000;strokeColor=#CC0000;fillColor=none;" parent="1" vertex="1">
          <mxGeometry x="2145" y="390" width="67.5" height="90" as="geometry" />
        </mxCell>
        <mxCell id="MnBA1TXpeBqanZ1rdVY3-14" value=".timeindex" style="shape=note;whiteSpace=wrap;html=1;backgroundOutline=1;darkOpacity=0.05;fontSize=14;fontColor=#CC0000;strokeColor=#CC0000;fillColor=none;" parent="1" vertex="1">
          <mxGeometry x="2227.5" y="390" width="67.5" height="90" as="geometry" />
        </mxCell>
        <mxCell id="MnBA1TXpeBqanZ1rdVY3-15" value="&lt;div style=&quot;text-align: justify&quot;&gt;&lt;span&gt;1.index保存了相对offset和position，并且是稀疏索引，当log文件写入4kb数据后，才会增加一条index&lt;/span&gt;&lt;/div&gt;&lt;div style=&quot;text-align: justify&quot;&gt;&lt;span&gt;2. log中保存真实日志数据&lt;/span&gt;&lt;/div&gt;&lt;div style=&quot;text-align: justify&quot;&gt;3.&amp;nbsp;timeindex保存数据的时间戳索引，为了后续的数据删除&lt;/div&gt;" style="text;html=1;strokeColor=none;fillColor=none;align=center;verticalAlign=middle;whiteSpace=wrap;rounded=0;fontSize=14;fontColor=#000000;" parent="1" vertex="1">
          <mxGeometry x="2058.75" y="480" width="266.25" height="115" as="geometry" />
        </mxCell>
        <mxCell id="MnBA1TXpeBqanZ1rdVY3-16" value="&lt;div&gt;index和log文件以当前&amp;nbsp;&lt;span&gt;segment的第一条消息的offset命名&amp;nbsp;&lt;/span&gt;&lt;/div&gt;" style="text;html=1;strokeColor=none;fillColor=none;align=center;verticalAlign=middle;whiteSpace=wrap;rounded=0;fontSize=14;fontColor=#000000;" parent="1" vertex="1">
          <mxGeometry x="2413.97" y="565" width="445" height="30" as="geometry" />
        </mxCell>
        <mxCell id="MnBA1TXpeBqanZ1rdVY3-20" value="消费者端" style="rounded=1;whiteSpace=wrap;html=1;strokeWidth=2;fillWeight=4;hachureGap=8;hachureAngle=45;fillColor=#f8cecc;sketch=1;fontSize=24;strokeColor=#b85450;" parent="1" vertex="1">
          <mxGeometry x="3230" y="675.37" width="330" height="60" as="geometry" />
        </mxCell>
        <mxCell id="OpnJIluzNIYoHCifWwKU-1" value="" style="group" parent="1" vertex="1" connectable="0">
          <mxGeometry x="2465" y="220" width="359.6099999999999" height="315" as="geometry" />
        </mxCell>
        <mxCell id="OpnJIluzNIYoHCifWwKU-2" value="topic" style="rounded=1;whiteSpace=wrap;html=1;fillColor=#f5f5f5;fontColor=#333333;strokeColor=#666666;" parent="OpnJIluzNIYoHCifWwKU-1" vertex="1">
          <mxGeometry x="135" width="85" height="30" as="geometry" />
        </mxCell>
        <mxCell id="OpnJIluzNIYoHCifWwKU-3" value="partition" style="rounded=1;whiteSpace=wrap;html=1;fillColor=#d5e8d4;strokeColor=#82b366;" parent="OpnJIluzNIYoHCifWwKU-1" vertex="1">
          <mxGeometry y="60" width="96" height="35" as="geometry" />
        </mxCell>
        <mxCell id="OpnJIluzNIYoHCifWwKU-4" value="partition" style="rounded=1;whiteSpace=wrap;html=1;fillColor=#d5e8d4;strokeColor=#82b366;" parent="OpnJIluzNIYoHCifWwKU-1" vertex="1">
          <mxGeometry x="130" y="60" width="90" height="35" as="geometry" />
        </mxCell>
        <mxCell id="OpnJIluzNIYoHCifWwKU-5" style="edgeStyle=orthogonalEdgeStyle;rounded=0;orthogonalLoop=1;jettySize=auto;html=1;" parent="OpnJIluzNIYoHCifWwKU-1" source="OpnJIluzNIYoHCifWwKU-2" target="OpnJIluzNIYoHCifWwKU-4" edge="1">
          <mxGeometry relative="1" as="geometry" />
        </mxCell>
        <mxCell id="OpnJIluzNIYoHCifWwKU-6" value="partition" style="rounded=1;whiteSpace=wrap;html=1;fillColor=#d5e8d4;strokeColor=#82b366;" parent="OpnJIluzNIYoHCifWwKU-1" vertex="1">
          <mxGeometry x="270" y="60" width="80" height="35" as="geometry" />
        </mxCell>
        <mxCell id="OpnJIluzNIYoHCifWwKU-7" value="log" style="whiteSpace=wrap;html=1;fillColor=#f5f5f5;strokeColor=#666666;rounded=1;fontColor=#333333;" parent="OpnJIluzNIYoHCifWwKU-1" vertex="1">
          <mxGeometry x="130" y="120" width="90" height="35" as="geometry" />
        </mxCell>
        <mxCell id="OpnJIluzNIYoHCifWwKU-8" value="" style="edgeStyle=orthogonalEdgeStyle;rounded=0;orthogonalLoop=1;jettySize=auto;html=1;" parent="OpnJIluzNIYoHCifWwKU-1" source="OpnJIluzNIYoHCifWwKU-4" target="OpnJIluzNIYoHCifWwKU-7" edge="1">
          <mxGeometry relative="1" as="geometry" />
        </mxCell>
        <mxCell id="OpnJIluzNIYoHCifWwKU-9" value="segement" style="whiteSpace=wrap;html=1;fillColor=#d5e8d4;strokeColor=#82b366;rounded=1;flipH=0;flipV=1;" parent="OpnJIluzNIYoHCifWwKU-1" vertex="1">
          <mxGeometry x="15" y="185" width="86" height="40" as="geometry" />
        </mxCell>
        <mxCell id="OpnJIluzNIYoHCifWwKU-10" value="" style="edgeStyle=orthogonalEdgeStyle;rounded=0;orthogonalLoop=1;jettySize=auto;html=1;" parent="OpnJIluzNIYoHCifWwKU-1" source="OpnJIluzNIYoHCifWwKU-7" target="OpnJIluzNIYoHCifWwKU-9" edge="1">
          <mxGeometry relative="1" as="geometry" />
        </mxCell>
        <mxCell id="OpnJIluzNIYoHCifWwKU-11" value="segement" style="whiteSpace=wrap;html=1;fillColor=#d5e8d4;strokeColor=#82b366;rounded=1;flipH=0;flipV=1;" parent="OpnJIluzNIYoHCifWwKU-1" vertex="1">
          <mxGeometry x="127.5" y="185" width="95" height="40" as="geometry" />
        </mxCell>
        <mxCell id="OpnJIluzNIYoHCifWwKU-12" style="edgeStyle=orthogonalEdgeStyle;rounded=0;orthogonalLoop=1;jettySize=auto;html=1;" parent="OpnJIluzNIYoHCifWwKU-1" source="OpnJIluzNIYoHCifWwKU-7" target="OpnJIluzNIYoHCifWwKU-11" edge="1">
          <mxGeometry relative="1" as="geometry" />
        </mxCell>
        <mxCell id="OpnJIluzNIYoHCifWwKU-13" value="segement" style="whiteSpace=wrap;html=1;fillColor=#d5e8d4;strokeColor=#82b366;rounded=1;flipH=0;flipV=1;" parent="OpnJIluzNIYoHCifWwKU-1" vertex="1">
          <mxGeometry x="270" y="185" width="80" height="40" as="geometry" />
        </mxCell>
        <mxCell id="OpnJIluzNIYoHCifWwKU-14" style="edgeStyle=orthogonalEdgeStyle;rounded=0;orthogonalLoop=1;jettySize=auto;html=1;entryX=0.5;entryY=0;entryDx=0;entryDy=0;" parent="OpnJIluzNIYoHCifWwKU-1" source="OpnJIluzNIYoHCifWwKU-7" target="OpnJIluzNIYoHCifWwKU-13" edge="1">
          <mxGeometry relative="1" as="geometry" />
        </mxCell>
        <mxCell id="OpnJIluzNIYoHCifWwKU-15" value=".index" style="whiteSpace=wrap;html=1;fillColor=#d5e8d4;strokeColor=#82b366;rounded=1;" parent="OpnJIluzNIYoHCifWwKU-1" vertex="1">
          <mxGeometry x="35" y="265" width="85" height="35" as="geometry" />
        </mxCell>
        <mxCell id="OpnJIluzNIYoHCifWwKU-16" value="" style="edgeStyle=orthogonalEdgeStyle;rounded=0;orthogonalLoop=1;jettySize=auto;html=1;exitX=0.25;exitY=1;exitDx=0;exitDy=0;" parent="OpnJIluzNIYoHCifWwKU-1" source="OpnJIluzNIYoHCifWwKU-11" target="OpnJIluzNIYoHCifWwKU-15" edge="1">
          <mxGeometry relative="1" as="geometry" />
        </mxCell>
        <mxCell id="OpnJIluzNIYoHCifWwKU-17" value=".log" style="whiteSpace=wrap;html=1;fillColor=#d5e8d4;strokeColor=#82b366;rounded=1;" parent="OpnJIluzNIYoHCifWwKU-1" vertex="1">
          <mxGeometry x="132.5" y="265" width="85" height="35" as="geometry" />
        </mxCell>
        <mxCell id="OpnJIluzNIYoHCifWwKU-18" style="edgeStyle=orthogonalEdgeStyle;rounded=0;orthogonalLoop=1;jettySize=auto;html=1;entryX=0.5;entryY=0;entryDx=0;entryDy=0;" parent="OpnJIluzNIYoHCifWwKU-1" source="OpnJIluzNIYoHCifWwKU-11" target="OpnJIluzNIYoHCifWwKU-17" edge="1">
          <mxGeometry relative="1" as="geometry" />
        </mxCell>
        <mxCell id="OpnJIluzNIYoHCifWwKU-19" value=".timeindex" style="whiteSpace=wrap;html=1;fillColor=#d5e8d4;strokeColor=#82b366;rounded=1;" parent="OpnJIluzNIYoHCifWwKU-1" vertex="1">
          <mxGeometry x="240" y="265" width="85" height="35" as="geometry" />
        </mxCell>
        <mxCell id="OpnJIluzNIYoHCifWwKU-20" style="edgeStyle=orthogonalEdgeStyle;rounded=0;orthogonalLoop=1;jettySize=auto;html=1;entryX=0.5;entryY=0;entryDx=0;entryDy=0;exitX=0.75;exitY=1;exitDx=0;exitDy=0;" parent="OpnJIluzNIYoHCifWwKU-1" source="OpnJIluzNIYoHCifWwKU-11" target="OpnJIluzNIYoHCifWwKU-19" edge="1">
          <mxGeometry relative="1" as="geometry" />
        </mxCell>
        <mxCell id="D_psUCIZxNdzvG0LY2VJ-3" value="消费者组A" style="shape=cube;whiteSpace=wrap;html=1;boundedLbl=1;backgroundOutline=1;darkOpacity=0.05;darkOpacity2=0.1;fontSize=15;" parent="1" vertex="1">
          <mxGeometry x="3345" y="746.38" width="125" height="162.5" as="geometry" />
        </mxCell>
        <mxCell id="TE2P3VH-hTuM74N47Mns-16" style="edgeStyle=orthogonalEdgeStyle;rounded=0;orthogonalLoop=1;jettySize=auto;html=1;entryX=1;entryY=0.5;entryDx=0;entryDy=0;fontSize=12;strokeWidth=2;exitX=0;exitY=0;exitDx=0;exitDy=157;exitPerimeter=0;" parent="1" source="D_psUCIZxNdzvG0LY2VJ-4" target="TE2P3VH-hTuM74N47Mns-9" edge="1">
          <mxGeometry relative="1" as="geometry">
            <Array as="points">
              <mxPoint x="3220" y="1103" />
              <mxPoint x="3220" y="933" />
            </Array>
          </mxGeometry>
        </mxCell>
        <mxCell id="D_psUCIZxNdzvG0LY2VJ-4" value="消费者组B" style="shape=cube;whiteSpace=wrap;html=1;boundedLbl=1;backgroundOutline=1;darkOpacity=0.05;darkOpacity2=0.1;fontSize=15;" parent="1" vertex="1">
          <mxGeometry x="3345" y="946" width="130" height="334" as="geometry" />
        </mxCell>
        <mxCell id="D_psUCIZxNdzvG0LY2VJ-5" value="&lt;div style=&quot;text-align: justify&quot;&gt;&lt;span&gt;事务协调器控制消费者组的消费策略，以及当消费者挂掉后，安排其他消费者对其剩余消息进行消费&lt;/span&gt;&lt;/div&gt;&lt;div style=&quot;text-align: justify&quot;&gt;&lt;span&gt;&lt;br&gt;&lt;/span&gt;&lt;/div&gt;&lt;div style=&quot;text-align: justify&quot;&gt;&lt;div&gt;每个消费者都会和coordinator保持心跳&lt;font color=&quot;#cc0000&quot;&gt;（默认3s）&lt;/font&gt;，一旦超时&lt;/div&gt;&lt;div&gt;（session.timeout.ms=&lt;font color=&quot;#cc0000&quot;&gt;45s&lt;/font&gt;），该消费者会被移除，并触发再平衡；或者消费者处理消息的过长（max.poll.interval.ms&lt;font color=&quot;#cc0000&quot;&gt;5分钟&lt;/font&gt;），也会触发再平衡&lt;/div&gt;&lt;/div&gt;" style="text;html=1;strokeColor=default;fillColor=none;align=left;verticalAlign=middle;whiteSpace=wrap;rounded=0;fontSize=15;" parent="1" vertex="1">
          <mxGeometry x="2730" y="660" width="430" height="160" as="geometry" />
        </mxCell>
        <mxCell id="D_psUCIZxNdzvG0LY2VJ-10" value="&lt;div style=&quot;text-align: justify&quot;&gt;&lt;font style=&quot;font-size: 13px&quot;&gt;&lt;font color=&quot;#99004d&quot;&gt;&lt;b&gt;消费者的消费策略&lt;/b&gt;&lt;/font&gt;：&lt;/font&gt;&lt;/div&gt;&lt;div style=&quot;text-align: justify&quot;&gt;&lt;span&gt;&lt;font style=&quot;font-size: 13px&quot;&gt;1,.&amp;nbsp;同一消费者组中的消费者不能消费同一分区&lt;/font&gt;&lt;/span&gt;&lt;/div&gt;&lt;div style=&quot;text-align: justify&quot;&gt;&lt;span&gt;&lt;font style=&quot;font-size: 13px&quot;&gt;2. range :&amp;nbsp;尽量均匀且连续的分配，num(part)/num(cons)&lt;/font&gt;&lt;/span&gt;&lt;/div&gt;&lt;div style=&quot;text-align: justify&quot;&gt;&lt;span&gt;&lt;font style=&quot;font-size: 13px&quot;&gt;3. roundrobin:&amp;nbsp;轮询&lt;/font&gt;&lt;/span&gt;&lt;/div&gt;&lt;div style=&quot;text-align: justify&quot;&gt;&lt;span&gt;&lt;font style=&quot;font-size: 13px&quot;&gt;4. stiky：&amp;nbsp;尽量均匀但随机的分配&lt;/font&gt;&lt;/span&gt;&lt;/div&gt;" style="text;html=1;strokeColor=default;fillColor=none;align=left;verticalAlign=middle;whiteSpace=wrap;rounded=0;dashed=1;" parent="1" vertex="1">
          <mxGeometry x="3230" y="1404.62" width="340" height="125" as="geometry" />
        </mxCell>
        <mxCell id="D_psUCIZxNdzvG0LY2VJ-60" style="edgeStyle=none;rounded=0;orthogonalLoop=1;jettySize=auto;html=1;entryX=0.5;entryY=0;entryDx=0;entryDy=0;fontSize=11;fontColor=#000000;strokeWidth=1;" parent="1" source="D_psUCIZxNdzvG0LY2VJ-14" target="D_psUCIZxNdzvG0LY2VJ-29" edge="1">
          <mxGeometry relative="1" as="geometry" />
        </mxCell>
        <mxCell id="D_psUCIZxNdzvG0LY2VJ-61" style="edgeStyle=none;rounded=0;orthogonalLoop=1;jettySize=auto;html=1;entryX=0.609;entryY=0.017;entryDx=0;entryDy=0;entryPerimeter=0;fontSize=11;fontColor=#000000;strokeWidth=1;" parent="1" source="D_psUCIZxNdzvG0LY2VJ-14" target="D_psUCIZxNdzvG0LY2VJ-16" edge="1">
          <mxGeometry relative="1" as="geometry" />
        </mxCell>
        <mxCell id="D_psUCIZxNdzvG0LY2VJ-62" style="edgeStyle=none;rounded=0;orthogonalLoop=1;jettySize=auto;html=1;entryX=0.605;entryY=0.063;entryDx=0;entryDy=0;entryPerimeter=0;fontSize=11;fontColor=#000000;strokeWidth=1;" parent="1" source="D_psUCIZxNdzvG0LY2VJ-14" target="D_psUCIZxNdzvG0LY2VJ-17" edge="1">
          <mxGeometry relative="1" as="geometry" />
        </mxCell>
        <mxCell id="D_psUCIZxNdzvG0LY2VJ-63" value="" style="edgeStyle=none;rounded=0;orthogonalLoop=1;jettySize=auto;html=1;fontSize=11;fontColor=#000000;strokeWidth=1;" parent="1" source="D_psUCIZxNdzvG0LY2VJ-14" target="D_psUCIZxNdzvG0LY2VJ-18" edge="1">
          <mxGeometry relative="1" as="geometry" />
        </mxCell>
        <mxCell id="D_psUCIZxNdzvG0LY2VJ-64" style="edgeStyle=none;rounded=0;orthogonalLoop=1;jettySize=auto;html=1;entryX=0.5;entryY=0;entryDx=0;entryDy=0;fontSize=11;fontColor=#000000;strokeWidth=1;" parent="1" source="D_psUCIZxNdzvG0LY2VJ-14" target="D_psUCIZxNdzvG0LY2VJ-19" edge="1">
          <mxGeometry relative="1" as="geometry" />
        </mxCell>
        <mxCell id="D_psUCIZxNdzvG0LY2VJ-65" style="edgeStyle=none;rounded=0;orthogonalLoop=1;jettySize=auto;html=1;entryX=0.5;entryY=0;entryDx=0;entryDy=0;fontSize=11;fontColor=#000000;strokeWidth=1;" parent="1" source="D_psUCIZxNdzvG0LY2VJ-14" target="D_psUCIZxNdzvG0LY2VJ-20" edge="1">
          <mxGeometry relative="1" as="geometry" />
        </mxCell>
        <mxCell id="D_psUCIZxNdzvG0LY2VJ-66" style="edgeStyle=none;rounded=0;orthogonalLoop=1;jettySize=auto;html=1;entryX=0;entryY=0.5;entryDx=0;entryDy=0;fontSize=11;fontColor=#000000;strokeWidth=1;" parent="1" source="D_psUCIZxNdzvG0LY2VJ-14" target="D_psUCIZxNdzvG0LY2VJ-56" edge="1">
          <mxGeometry relative="1" as="geometry" />
        </mxCell>
        <mxCell id="D_psUCIZxNdzvG0LY2VJ-67" style="edgeStyle=none;rounded=0;orthogonalLoop=1;jettySize=auto;html=1;entryX=0;entryY=0.5;entryDx=0;entryDy=0;fontSize=11;fontColor=#000000;strokeWidth=1;" parent="1" source="D_psUCIZxNdzvG0LY2VJ-14" target="D_psUCIZxNdzvG0LY2VJ-57" edge="1">
          <mxGeometry relative="1" as="geometry" />
        </mxCell>
        <mxCell id="D_psUCIZxNdzvG0LY2VJ-68" style="edgeStyle=none;rounded=0;orthogonalLoop=1;jettySize=auto;html=1;entryX=0;entryY=0.5;entryDx=0;entryDy=0;fontSize=11;fontColor=#000000;strokeWidth=1;" parent="1" source="D_psUCIZxNdzvG0LY2VJ-14" target="D_psUCIZxNdzvG0LY2VJ-59" edge="1">
          <mxGeometry relative="1" as="geometry" />
        </mxCell>
        <mxCell id="D_psUCIZxNdzvG0LY2VJ-69" style="edgeStyle=none;rounded=0;orthogonalLoop=1;jettySize=auto;html=1;entryX=0;entryY=0.5;entryDx=0;entryDy=0;fontSize=11;fontColor=#000000;strokeWidth=1;" parent="1" source="D_psUCIZxNdzvG0LY2VJ-14" target="D_psUCIZxNdzvG0LY2VJ-58" edge="1">
          <mxGeometry relative="1" as="geometry" />
        </mxCell>
        <mxCell id="D_psUCIZxNdzvG0LY2VJ-14" value="/kafka" style="rounded=0;whiteSpace=wrap;html=1;fontSize=13;strokeColor=#d6b656;fillColor=#fff2cc;" parent="1" vertex="1">
          <mxGeometry x="1440" y="200" width="85" height="35" as="geometry" />
        </mxCell>
        <mxCell id="D_psUCIZxNdzvG0LY2VJ-16" value="brokers" style="rounded=0;whiteSpace=wrap;html=1;fontSize=13;strokeColor=#d79b00;fillColor=#ffe6cc;" parent="1" vertex="1">
          <mxGeometry x="1250" y="275" width="77.5" height="35" as="geometry" />
        </mxCell>
        <mxCell id="D_psUCIZxNdzvG0LY2VJ-17" value="cluster" style="rounded=0;whiteSpace=wrap;html=1;fontSize=13;strokeColor=#d79b00;fillColor=#ffe6cc;" parent="1" vertex="1">
          <mxGeometry x="1345" y="275" width="77.5" height="35" as="geometry" />
        </mxCell>
        <mxCell id="D_psUCIZxNdzvG0LY2VJ-18" value="consumers" style="rounded=0;whiteSpace=wrap;html=1;fontSize=13;strokeColor=#d79b00;fillColor=#ffe6cc;" parent="1" vertex="1">
          <mxGeometry x="1446.62" y="273.75" width="77.5" height="35" as="geometry" />
        </mxCell>
        <mxCell id="D_psUCIZxNdzvG0LY2VJ-19" value="controller" style="rounded=0;whiteSpace=wrap;html=1;fontSize=13;strokeColor=#d79b00;fillColor=#ffe6cc;" parent="1" vertex="1">
          <mxGeometry x="1540" y="272.5" width="77.5" height="35" as="geometry" />
        </mxCell>
        <mxCell id="D_psUCIZxNdzvG0LY2VJ-20" value="config" style="rounded=0;whiteSpace=wrap;html=1;fontSize=13;strokeColor=#d79b00;fillColor=#ffe6cc;" parent="1" vertex="1">
          <mxGeometry x="1629.5" y="272.5" width="77.5" height="35" as="geometry" />
        </mxCell>
        <mxCell id="D_psUCIZxNdzvG0LY2VJ-21" value="&lt;div style=&quot;font-size: 11px&quot;&gt;{&quot;version&quot;:1&lt;/div&gt;&lt;div style=&quot;font-size: 11px&quot;&gt;,&quot;brokerid&quot;:&lt;span&gt;0,&lt;/span&gt;&lt;/div&gt;&lt;div style=&quot;font-size: 11px&quot;&gt;&lt;span&gt;&quot;timestam&lt;/span&gt;&lt;span&gt;p&quot;:&quot;163590&lt;/span&gt;&lt;/div&gt;&lt;div style=&quot;font-size: 11px&quot;&gt;7476&quot;}&lt;/div&gt;" style="text;html=1;strokeColor=none;fillColor=none;align=center;verticalAlign=middle;whiteSpace=wrap;rounded=0;fontSize=11;fontColor=#000000;" parent="1" vertex="1">
          <mxGeometry x="1535" y="308.75" width="110" height="75" as="geometry" />
        </mxCell>
        <mxCell id="D_psUCIZxNdzvG0LY2VJ-34" value="" style="edgeStyle=orthogonalEdgeStyle;rounded=0;orthogonalLoop=1;jettySize=auto;html=1;fontSize=11;fontColor=#000000;strokeWidth=1;" parent="1" source="D_psUCIZxNdzvG0LY2VJ-26" target="D_psUCIZxNdzvG0LY2VJ-33" edge="1">
          <mxGeometry relative="1" as="geometry" />
        </mxCell>
        <mxCell id="D_psUCIZxNdzvG0LY2VJ-26" value="first" style="rounded=0;whiteSpace=wrap;html=1;fontSize=13;strokeColor=#6c8ebf;fillColor=#dae8fc;" parent="1" vertex="1">
          <mxGeometry x="1250" y="395" width="77.5" height="35" as="geometry" />
        </mxCell>
        <mxCell id="D_psUCIZxNdzvG0LY2VJ-28" value="id" style="rounded=0;whiteSpace=wrap;html=1;fontSize=13;strokeColor=#82b366;fillColor=#d5e8d4;" parent="1" vertex="1">
          <mxGeometry x="1150" y="340" width="77.5" height="35" as="geometry" />
        </mxCell>
        <mxCell id="D_psUCIZxNdzvG0LY2VJ-29" value="admin" style="rounded=0;whiteSpace=wrap;html=1;fontSize=13;strokeColor=#d79b00;fillColor=#ffe6cc;" parent="1" vertex="1">
          <mxGeometry x="1150" y="277.5" width="77.5" height="35" as="geometry" />
        </mxCell>
        <mxCell id="D_psUCIZxNdzvG0LY2VJ-30" value="seqid" style="rounded=0;whiteSpace=wrap;html=1;fontSize=13;strokeColor=#82b366;fillColor=#d5e8d4;" parent="1" vertex="1">
          <mxGeometry x="1353" y="340" width="77.5" height="35" as="geometry" />
        </mxCell>
        <mxCell id="D_psUCIZxNdzvG0LY2VJ-32" style="edgeStyle=orthogonalEdgeStyle;rounded=0;orthogonalLoop=1;jettySize=auto;html=1;entryX=0.5;entryY=0;entryDx=0;entryDy=0;fontSize=11;fontColor=#000000;strokeWidth=1;" parent="1" source="D_psUCIZxNdzvG0LY2VJ-31" target="D_psUCIZxNdzvG0LY2VJ-26" edge="1">
          <mxGeometry relative="1" as="geometry" />
        </mxCell>
        <mxCell id="D_psUCIZxNdzvG0LY2VJ-31" value="topic" style="rounded=0;whiteSpace=wrap;html=1;fontSize=13;strokeColor=#82b366;fillColor=#d5e8d4;" parent="1" vertex="1">
          <mxGeometry x="1250" y="340" width="77.5" height="35" as="geometry" />
        </mxCell>
        <mxCell id="D_psUCIZxNdzvG0LY2VJ-36" value="" style="edgeStyle=orthogonalEdgeStyle;rounded=0;orthogonalLoop=1;jettySize=auto;html=1;fontSize=11;fontColor=#000000;strokeWidth=1;" parent="1" source="D_psUCIZxNdzvG0LY2VJ-33" target="D_psUCIZxNdzvG0LY2VJ-35" edge="1">
          <mxGeometry relative="1" as="geometry">
            <Array as="points">
              <mxPoint x="1350" y="478" />
              <mxPoint x="1350" y="428" />
            </Array>
          </mxGeometry>
        </mxCell>
        <mxCell id="D_psUCIZxNdzvG0LY2VJ-39" style="edgeStyle=orthogonalEdgeStyle;rounded=0;orthogonalLoop=1;jettySize=auto;html=1;entryX=0;entryY=0.5;entryDx=0;entryDy=0;fontSize=11;fontColor=#000000;strokeWidth=1;" parent="1" source="D_psUCIZxNdzvG0LY2VJ-33" target="D_psUCIZxNdzvG0LY2VJ-37" edge="1">
          <mxGeometry relative="1" as="geometry" />
        </mxCell>
        <mxCell id="D_psUCIZxNdzvG0LY2VJ-40" style="edgeStyle=orthogonalEdgeStyle;rounded=0;orthogonalLoop=1;jettySize=auto;html=1;entryX=0;entryY=0.5;entryDx=0;entryDy=0;fontSize=11;fontColor=#000000;strokeWidth=1;" parent="1" source="D_psUCIZxNdzvG0LY2VJ-33" target="D_psUCIZxNdzvG0LY2VJ-38" edge="1">
          <mxGeometry relative="1" as="geometry" />
        </mxCell>
        <mxCell id="D_psUCIZxNdzvG0LY2VJ-33" value="partition" style="rounded=0;whiteSpace=wrap;html=1;fontSize=13;strokeColor=#9673a6;fillColor=#e1d5e7;" parent="1" vertex="1">
          <mxGeometry x="1250" y="460" width="77.5" height="35" as="geometry" />
        </mxCell>
        <mxCell id="D_psUCIZxNdzvG0LY2VJ-45" style="edgeStyle=orthogonalEdgeStyle;rounded=0;orthogonalLoop=1;jettySize=auto;html=1;entryX=0;entryY=0.5;entryDx=0;entryDy=0;fontSize=11;fontColor=#000000;strokeWidth=1;" parent="1" source="D_psUCIZxNdzvG0LY2VJ-35" target="D_psUCIZxNdzvG0LY2VJ-44" edge="1">
          <mxGeometry relative="1" as="geometry" />
        </mxCell>
        <mxCell id="D_psUCIZxNdzvG0LY2VJ-35" value="0" style="rounded=0;whiteSpace=wrap;html=1;fontSize=13;strokeColor=#666666;fillColor=#f5f5f5;fontColor=#333333;" parent="1" vertex="1">
          <mxGeometry x="1371.75" y="410" width="58.25" height="35" as="geometry" />
        </mxCell>
        <mxCell id="D_psUCIZxNdzvG0LY2VJ-51" style="edgeStyle=orthogonalEdgeStyle;rounded=0;orthogonalLoop=1;jettySize=auto;html=1;entryX=0;entryY=0.5;entryDx=0;entryDy=0;fontSize=11;fontColor=#000000;strokeWidth=1;" parent="1" source="D_psUCIZxNdzvG0LY2VJ-37" target="D_psUCIZxNdzvG0LY2VJ-49" edge="1">
          <mxGeometry relative="1" as="geometry" />
        </mxCell>
        <mxCell id="D_psUCIZxNdzvG0LY2VJ-37" value="1" style="rounded=0;whiteSpace=wrap;html=1;fontSize=13;strokeColor=#666666;fillColor=#f5f5f5;fontColor=#333333;" parent="1" vertex="1">
          <mxGeometry x="1372.25" y="460" width="58.25" height="35" as="geometry" />
        </mxCell>
        <mxCell id="D_psUCIZxNdzvG0LY2VJ-52" style="edgeStyle=orthogonalEdgeStyle;rounded=0;orthogonalLoop=1;jettySize=auto;html=1;entryX=0;entryY=0.5;entryDx=0;entryDy=0;fontSize=11;fontColor=#000000;strokeWidth=1;" parent="1" source="D_psUCIZxNdzvG0LY2VJ-38" target="D_psUCIZxNdzvG0LY2VJ-50" edge="1">
          <mxGeometry relative="1" as="geometry" />
        </mxCell>
        <mxCell id="D_psUCIZxNdzvG0LY2VJ-38" value="2" style="rounded=0;whiteSpace=wrap;html=1;fontSize=13;strokeColor=#666666;fillColor=#f5f5f5;fontColor=#333333;" parent="1" vertex="1">
          <mxGeometry x="1372.25" y="510" width="58.25" height="35" as="geometry" />
        </mxCell>
        <mxCell id="D_psUCIZxNdzvG0LY2VJ-44" value="state" style="rounded=0;whiteSpace=wrap;html=1;fontSize=13;strokeColor=#666666;fillColor=#f5f5f5;fontColor=#333333;" parent="1" vertex="1">
          <mxGeometry x="1465.88" y="410" width="58.25" height="35" as="geometry" />
        </mxCell>
        <mxCell id="D_psUCIZxNdzvG0LY2VJ-49" value="state" style="rounded=0;whiteSpace=wrap;html=1;fontSize=13;strokeColor=#666666;fillColor=#f5f5f5;fontColor=#333333;" parent="1" vertex="1">
          <mxGeometry x="1465.88" y="460" width="58.25" height="35" as="geometry" />
        </mxCell>
        <mxCell id="D_psUCIZxNdzvG0LY2VJ-50" value="state" style="rounded=0;whiteSpace=wrap;html=1;fontSize=13;strokeColor=#666666;fillColor=#f5f5f5;fontColor=#333333;" parent="1" vertex="1">
          <mxGeometry x="1465.8700000000001" y="510" width="58.25" height="35" as="geometry" />
        </mxCell>
        <mxCell id="D_psUCIZxNdzvG0LY2VJ-53" value="&lt;div&gt;&lt;span style=&quot;font-size: 11px&quot;&gt;{&quot;controller_epoch&quot;:21,&quot;leader&quot;:&lt;font color=&quot;#cc0000&quot;&gt;1&lt;/font&gt;,&quot;version&quot;:1,&quot;&lt;/span&gt;&lt;/div&gt;&lt;div style=&quot;text-align: justify&quot;&gt;&lt;span style=&quot;font-size: 11px&quot;&gt;leader_epoch&quot;:17,&lt;font color=&quot;#cc0000&quot;&gt;&quot;isr&quot;:[1,0,2]&lt;/font&gt;}&lt;/span&gt;&lt;/div&gt;" style="text;html=1;strokeColor=none;fillColor=none;align=center;verticalAlign=middle;whiteSpace=wrap;rounded=0;fontSize=11;fontColor=#000000;" parent="1" vertex="1">
          <mxGeometry x="1540" y="412.5" width="255" height="30" as="geometry" />
        </mxCell>
        <mxCell id="D_psUCIZxNdzvG0LY2VJ-54" value="&lt;div style=&quot;text-align: justify&quot;&gt;&lt;span style=&quot;font-size: 11px&quot;&gt;{&quot;controller_epoch&quot;:21,&quot;leader&quot;&lt;font color=&quot;#cc0000&quot;&gt;:0&lt;/font&gt;,&quot;version&quot;:1,&quot;&lt;/span&gt;&lt;/div&gt;&lt;div style=&quot;text-align: justify&quot;&gt;&lt;span style=&quot;font-size: 11px&quot;&gt;leader_epoch&quot;:19,&lt;font color=&quot;#cc0000&quot;&gt;&quot;isr&quot;:[0,1,2]}&lt;/font&gt;&lt;/span&gt;&lt;/div&gt;" style="text;html=1;strokeColor=none;fillColor=none;align=center;verticalAlign=middle;whiteSpace=wrap;rounded=0;fontSize=11;fontColor=#000000;" parent="1" vertex="1">
          <mxGeometry x="1540" y="512.5" width="245" height="30" as="geometry" />
        </mxCell>
        <mxCell id="D_psUCIZxNdzvG0LY2VJ-55" value="&lt;div style=&quot;text-align: justify&quot;&gt;&lt;span style=&quot;font-size: 11px&quot;&gt;{&quot;controller_epoch&quot;:21,&quot;leader&quot;&lt;font color=&quot;#cc0000&quot;&gt;:2&lt;/font&gt;,&quot;version&quot;:1,&quot;&lt;/span&gt;&lt;/div&gt;&lt;div style=&quot;text-align: justify&quot;&gt;&lt;span style=&quot;font-size: 11px&quot;&gt;leader_epoch&quot;:15,&lt;font color=&quot;#cc0000&quot;&gt;&quot;isr&quot;:[2,1,0]}&lt;/font&gt;&lt;/span&gt;&lt;/div&gt;" style="text;html=1;strokeColor=none;fillColor=none;align=center;verticalAlign=middle;whiteSpace=wrap;rounded=0;fontSize=11;fontColor=#000000;" parent="1" vertex="1">
          <mxGeometry x="1572.5" y="460" width="187.5" height="30" as="geometry" />
        </mxCell>
        <mxCell id="MnBA1TXpeBqanZ1rdVY3-7" value="" style="curved=1;endArrow=classic;html=1;rounded=0;fontSize=14;fontColor=#CC0000;exitX=0.5;exitY=1;exitDx=0;exitDy=0;entryX=0;entryY=0.5;entryDx=0;entryDy=0;entryPerimeter=0;" parent="1" source="MnBA1TXpeBqanZ1rdVY3-5" target="MnBA1TXpeBqanZ1rdVY3-8" edge="1">
          <mxGeometry width="50" height="50" relative="1" as="geometry">
            <mxPoint x="2065" y="350" as="sourcePoint" />
            <mxPoint x="2115" y="300" as="targetPoint" />
            <Array as="points">
              <mxPoint x="1975" y="620" />
            </Array>
          </mxGeometry>
        </mxCell>
        <mxCell id="D_psUCIZxNdzvG0LY2VJ-56" value="log_dir_event_notification" style="rounded=0;whiteSpace=wrap;html=1;fontSize=11;strokeColor=#d79b00;fillColor=#ffe6cc;" parent="1" vertex="1">
          <mxGeometry x="1811.25" y="157.5" width="192.5" height="30" as="geometry" />
        </mxCell>
        <mxCell id="D_psUCIZxNdzvG0LY2VJ-57" value="latest_producer_id_block" style="rounded=0;whiteSpace=wrap;html=1;fontSize=11;strokeColor=#d79b00;fillColor=#ffe6cc;" parent="1" vertex="1">
          <mxGeometry x="1811.25" y="192.5" width="192.5" height="32.5" as="geometry" />
        </mxCell>
        <mxCell id="D_psUCIZxNdzvG0LY2VJ-58" value="Controller_epoch" style="rounded=0;whiteSpace=wrap;html=1;fontSize=11;strokeColor=#d79b00;fillColor=#ffe6cc;" parent="1" vertex="1">
          <mxGeometry x="1811.25" y="275" width="192.5" height="32.5" as="geometry" />
        </mxCell>
        <mxCell id="D_psUCIZxNdzvG0LY2VJ-59" value="Isr_change_notification" style="rounded=0;whiteSpace=wrap;html=1;fontSize=11;strokeColor=#d79b00;fillColor=#ffe6cc;" parent="1" vertex="1">
          <mxGeometry x="1811.25" y="232.5" width="192.5" height="32.5" as="geometry" />
        </mxCell>
        <mxCell id="c2JDwz5LXpJiPW_2kjGZ-3" value="&lt;div&gt;__transaction_state-分区-Leader&lt;/div&gt;&lt;div&gt;存储事务信息的特殊主题&lt;/div&gt;" style="rounded=0;whiteSpace=wrap;html=1;strokeColor=#d6b656;fillColor=#fff2cc;" parent="1" vertex="1">
          <mxGeometry x="2302.5" y="1300" width="215" height="60" as="geometry" />
        </mxCell>
        <mxCell id="-DWdb9lvFDNPIEKAmtFA-208" value="&lt;div style=&quot;font-size: 12px;&quot;&gt;每个消费者的offset由消费&lt;/div&gt;&lt;div style=&quot;font-size: 12px;&quot;&gt;者提交到系统主题保存&lt;/div&gt;" style="text;html=1;strokeColor=none;fillColor=none;align=center;verticalAlign=middle;whiteSpace=wrap;rounded=0;dashed=1;fontSize=12;fontColor=#000000;" parent="1" vertex="1">
          <mxGeometry x="2192.5" y="1087.5" width="140" height="30" as="geometry" />
        </mxCell>
        <mxCell id="TE2P3VH-hTuM74N47Mns-3" value="" style="curved=1;endArrow=none;html=1;rounded=0;dashed=1;fontSize=14;fontColor=#000000;strokeColor=#CC0000;exitX=0.5;exitY=0;exitDx=0;exitDy=0;entryX=0.014;entryY=0.588;entryDx=0;entryDy=0;entryPerimeter=0;" parent="1" source="-DWdb9lvFDNPIEKAmtFA-156" target="-DWdb9lvFDNPIEKAmtFA-208" edge="1">
          <mxGeometry width="50" height="50" relative="1" as="geometry">
            <mxPoint x="2126.875" y="1121.38" as="sourcePoint" />
            <mxPoint x="2346.89" y="1149.1529999999998" as="targetPoint" />
            <Array as="points" />
          </mxGeometry>
        </mxCell>
        <mxCell id="TE2P3VH-hTuM74N47Mns-6" value="&lt;div&gt;&lt;span&gt;&lt;b&gt;&lt;font color=&quot;#99004d&quot;&gt;主消费者协调器的选择：&lt;/font&gt;&lt;/b&gt;&lt;/span&gt;&lt;/div&gt;&lt;br&gt;&lt;div style=&quot;text-align: center&quot;&gt;&lt;span&gt;hash(groupid)%50，计算当前消费者组在&lt;/span&gt;&lt;/div&gt;&lt;div style=&quot;text-align: center&quot;&gt;&lt;span&gt;&amp;nbsp;__consumer_offsets的&lt;/span&gt;&lt;span&gt;哪个分区上，则该分区的leader所在broker的coordinator作为主消费者协调器&lt;/span&gt;&lt;span style=&quot;text-align: justify&quot;&gt;【其中50为&lt;/span&gt;&lt;span&gt;&lt;span style=&quot;font-size: 12px&quot;&gt;&amp;nbsp;__consumer_offsets主题的默认分区数&lt;/span&gt;&lt;/span&gt;&lt;span style=&quot;text-align: justify&quot;&gt;】&lt;/span&gt;&lt;/div&gt;" style="whiteSpace=wrap;html=1;rounded=0;shadow=0;comic=0;fontSize=13;strokeWidth=1;align=left;dashed=1;fillColor=none;" parent="1" vertex="1">
          <mxGeometry x="2050" y="1390" width="245" height="140" as="geometry" />
        </mxCell>
        <mxCell id="TE2P3VH-hTuM74N47Mns-8" value="" style="rounded=1;whiteSpace=wrap;html=1;dashed=1;fontSize=12;strokeColor=#ae4132;strokeWidth=2;fillColor=none;" parent="1" vertex="1">
          <mxGeometry x="2730" y="858.75" width="480" height="497.5" as="geometry" />
        </mxCell>
        <mxCell id="TE2P3VH-hTuM74N47Mns-17" style="edgeStyle=orthogonalEdgeStyle;rounded=0;orthogonalLoop=1;jettySize=auto;html=1;entryX=1;entryY=0.25;entryDx=0;entryDy=0;fontSize=12;strokeWidth=2;" parent="1" source="TE2P3VH-hTuM74N47Mns-9" target="UxnLPPTvP_sObnjLlX6k-113" edge="1">
          <mxGeometry relative="1" as="geometry" />
        </mxCell>
        <mxCell id="TE2P3VH-hTuM74N47Mns-9" value="ConsumerNetworkClient" style="rounded=0;whiteSpace=wrap;html=1;dashed=1;fontSize=12;strokeColor=#ae4132;strokeWidth=2;fillColor=#fad9d5;" parent="1" vertex="1">
          <mxGeometry x="2770" y="902.5" width="200" height="60" as="geometry" />
        </mxCell>
        <mxCell id="TE2P3VH-hTuM74N47Mns-11" value="" style="group" parent="1" vertex="1" connectable="0">
          <mxGeometry x="2350" y="799.9999999999999" width="135" height="38.629999999999995" as="geometry" />
        </mxCell>
        <mxCell id="TE2P3VH-hTuM74N47Mns-4" value="&lt;span style=&quot;font-size: 13px&quot;&gt;Coordinator&lt;/span&gt;" style="rounded=0;whiteSpace=wrap;html=1;fontSize=12;fillColor=#e6d0de;strokeColor=#996185;gradientColor=#d5739d;" parent="TE2P3VH-hTuM74N47Mns-11" vertex="1">
          <mxGeometry width="135" height="38.63" as="geometry" />
        </mxCell>
        <mxCell id="TE2P3VH-hTuM74N47Mns-5" value="" style="verticalLabelPosition=bottom;verticalAlign=top;html=1;shape=mxgraph.basic.star;fontSize=14;fontColor=#000000;strokeColor=none;strokeWidth=2;fillColor=#FFFFFF;" parent="TE2P3VH-hTuM74N47Mns-11" vertex="1">
          <mxGeometry x="105" y="9.310000000000173" width="20" height="20" as="geometry" />
        </mxCell>
        <mxCell id="TE2P3VH-hTuM74N47Mns-14" style="edgeStyle=none;rounded=0;orthogonalLoop=1;jettySize=auto;html=1;fontSize=12;strokeWidth=2;entryX=0;entryY=0;entryDx=0;entryDy=71.25;entryPerimeter=0;" parent="1" source="TE2P3VH-hTuM74N47Mns-4" target="D_psUCIZxNdzvG0LY2VJ-3" edge="1">
          <mxGeometry relative="1" as="geometry">
            <mxPoint x="3350" y="830" as="targetPoint" />
          </mxGeometry>
        </mxCell>
        <mxCell id="TE2P3VH-hTuM74N47Mns-18" value="&lt;div&gt;sendFetches&lt;/div&gt;&lt;div&gt;发送消费请求&lt;/div&gt;" style="text;html=1;strokeColor=none;fillColor=none;align=center;verticalAlign=middle;whiteSpace=wrap;rounded=0;dashed=1;fontSize=12;" parent="1" vertex="1">
          <mxGeometry x="3010" y="892.5" width="110" height="30" as="geometry" />
        </mxCell>
        <mxCell id="TE2P3VH-hTuM74N47Mns-19" value="&lt;div style=&quot;text-align: justify&quot;&gt;Fetch.min.bytes每批次最&lt;/div&gt;&lt;div style=&quot;text-align: justify&quot;&gt;小抓取大小，&lt;font color=&quot;#cc0000&quot;&gt;默认1字节&lt;/font&gt;&lt;/div&gt;&lt;div style=&quot;text-align: justify&quot;&gt;&lt;br&gt;&lt;/div&gt;&lt;div&gt;&lt;div style=&quot;text-align: justify&quot;&gt;fetch.max.wait.ms一批数据最小值&lt;/div&gt;&lt;div style=&quot;text-align: justify&quot;&gt;未达到的超时时间，&lt;font color=&quot;#cc0000&quot;&gt;默认500ms&lt;/font&gt;&lt;/div&gt;&lt;/div&gt;&lt;div style=&quot;text-align: justify&quot;&gt;&lt;br&gt;&lt;/div&gt;&lt;div style=&quot;text-align: justify&quot;&gt;&lt;div&gt;Fetch.max.bytes每批次最&lt;/div&gt;&lt;div&gt;大抓取大小，&lt;font color=&quot;#cc0000&quot;&gt;默认50m&lt;/font&gt;&lt;/div&gt;&lt;/div&gt;" style="text;html=1;strokeColor=none;fillColor=none;align=center;verticalAlign=middle;whiteSpace=wrap;rounded=0;dashed=1;fontSize=12;" parent="1" vertex="1">
          <mxGeometry x="2770" y="971.25" width="210" height="118.75" as="geometry" />
        </mxCell>
        <mxCell id="TE2P3VH-hTuM74N47Mns-29" style="edgeStyle=orthogonalEdgeStyle;rounded=0;orthogonalLoop=1;jettySize=auto;html=1;fontSize=12;fontColor=#000000;strokeWidth=2;" parent="1" source="TE2P3VH-hTuM74N47Mns-21" target="D_psUCIZxNdzvG0LY2VJ-4" edge="1">
          <mxGeometry relative="1" as="geometry" />
        </mxCell>
        <mxCell id="TE2P3VH-hTuM74N47Mns-21" value="" style="rounded=0;whiteSpace=wrap;html=1;dashed=1;fontSize=12;strokeColor=#ae4132;strokeWidth=2;fillColor=#fad9d5;" parent="1" vertex="1">
          <mxGeometry x="2760" y="1130" width="260" height="140" as="geometry" />
        </mxCell>
        <mxCell id="TE2P3VH-hTuM74N47Mns-24" value="&lt;div&gt;completedFetches&lt;/div&gt;&lt;div&gt;（queue）&lt;/div&gt;" style="text;html=1;strokeColor=none;fillColor=none;align=center;verticalAlign=middle;whiteSpace=wrap;rounded=0;dashed=1;fontSize=12;fontColor=#000000;" parent="1" vertex="1">
          <mxGeometry x="2864.61" y="1150" width="110" height="30" as="geometry" />
        </mxCell>
        <mxCell id="TE2P3VH-hTuM74N47Mns-25" value="" style="whiteSpace=wrap;html=1;aspect=fixed;fontSize=12;fontColor=#000000;strokeColor=#FF99CC;strokeWidth=2;fillColor=default;" parent="1" vertex="1">
          <mxGeometry x="2800" y="1195" width="40" height="40" as="geometry" />
        </mxCell>
        <mxCell id="TE2P3VH-hTuM74N47Mns-26" value="" style="whiteSpace=wrap;html=1;aspect=fixed;fontSize=12;fontColor=#000000;strokeColor=#FF99CC;strokeWidth=2;fillColor=default;" parent="1" vertex="1">
          <mxGeometry x="2884.61" y="1198" width="40" height="40" as="geometry" />
        </mxCell>
        <mxCell id="TE2P3VH-hTuM74N47Mns-33" style="edgeStyle=orthogonalEdgeStyle;rounded=0;orthogonalLoop=1;jettySize=auto;html=1;entryX=0;entryY=0.5;entryDx=0;entryDy=0;fontSize=12;fontColor=#CC0000;strokeWidth=2;" parent="1" source="TE2P3VH-hTuM74N47Mns-27" target="TE2P3VH-hTuM74N47Mns-32" edge="1">
          <mxGeometry relative="1" as="geometry" />
        </mxCell>
        <mxCell id="TE2P3VH-hTuM74N47Mns-27" value="fetch" style="whiteSpace=wrap;html=1;aspect=fixed;fontSize=12;fontColor=#000000;strokeColor=#FF99CC;strokeWidth=2;fillColor=default;" parent="1" vertex="1">
          <mxGeometry x="2960" y="1198" width="40" height="40" as="geometry" />
        </mxCell>
        <mxCell id="TE2P3VH-hTuM74N47Mns-31" value="&lt;div style=&quot;text-align: justify&quot;&gt;FetchedRecords&lt;/div&gt;&lt;div style=&quot;text-align: justify&quot;&gt;从队列中抓取数据&lt;/div&gt;&lt;div style=&quot;text-align: justify&quot;&gt;&lt;br&gt;&lt;/div&gt;&lt;div&gt;&lt;div style=&quot;text-align: justify&quot;&gt;Max.poll.records一次&lt;/div&gt;&lt;div style=&quot;text-align: justify&quot;&gt;拉取数据返回消息的&lt;/div&gt;&lt;div style=&quot;text-align: justify&quot;&gt;最大条数，&lt;font color=&quot;#cc0000&quot;&gt;默认500条&lt;/font&gt;&lt;/div&gt;&lt;/div&gt;" style="text;html=1;strokeColor=none;fillColor=none;align=center;verticalAlign=middle;whiteSpace=wrap;rounded=0;fontSize=12;fontColor=#000000;" parent="1" vertex="1">
          <mxGeometry x="3030" y="1100" width="140" height="90" as="geometry" />
        </mxCell>
        <mxCell id="TE2P3VH-hTuM74N47Mns-35" value="" style="edgeStyle=orthogonalEdgeStyle;rounded=0;orthogonalLoop=1;jettySize=auto;html=1;fontSize=12;fontColor=#CC0000;strokeWidth=2;" parent="1" source="TE2P3VH-hTuM74N47Mns-32" target="TE2P3VH-hTuM74N47Mns-34" edge="1">
          <mxGeometry relative="1" as="geometry" />
        </mxCell>
        <mxCell id="TE2P3VH-hTuM74N47Mns-32" value="反序列化" style="rounded=0;whiteSpace=wrap;html=1;fontSize=12;strokeColor=#000000;strokeWidth=1;fillColor=#fad9d5;" parent="1" vertex="1">
          <mxGeometry x="3055" y="1208" width="90" height="30" as="geometry" />
        </mxCell>
        <mxCell id="TE2P3VH-hTuM74N47Mns-37" value="" style="edgeStyle=orthogonalEdgeStyle;rounded=0;orthogonalLoop=1;jettySize=auto;html=1;fontSize=12;fontColor=#CC0000;strokeWidth=2;" parent="1" source="TE2P3VH-hTuM74N47Mns-34" target="TE2P3VH-hTuM74N47Mns-36" edge="1">
          <mxGeometry relative="1" as="geometry" />
        </mxCell>
        <mxCell id="TE2P3VH-hTuM74N47Mns-34" value="拦截器" style="rounded=0;whiteSpace=wrap;html=1;fontSize=12;strokeColor=#000000;strokeWidth=1;fillColor=#fad9d5;" parent="1" vertex="1">
          <mxGeometry x="3055" y="1258" width="90" height="30" as="geometry" />
        </mxCell>
        <mxCell id="TE2P3VH-hTuM74N47Mns-36" value="处理数据" style="rounded=0;whiteSpace=wrap;html=1;fontSize=12;strokeColor=#000000;strokeWidth=1;fillColor=#fad9d5;" parent="1" vertex="1">
          <mxGeometry x="3055" y="1305.83" width="90" height="30" as="geometry" />
        </mxCell>
      </root>
    </mxGraphModel>
  </diagram>
</mxfile>
